<svg xmlns="http://www.w3.org/2000/svg" xmlns:xlink="http://www.w3.org/1999/xlink" width="500" zoomAndPan="magnify" viewBox="0 0 375 374.999991" height="500" preserveAspectRatio="xMidYMid meet" version="1.0"><defs><g/><clipPath id="674f072ba5"><path d="M 8 0.519531 L 33 0.519531 L 33 37 L 8 37 Z M 8 0.519531 " clip-rule="nonzero"/></clipPath><clipPath id="d8f02ce25b"><path d="M 133 0.519531 L 155 0.519531 L 155 37 L 133 37 Z M 133 0.519531 " clip-rule="nonzero"/></clipPath><clipPath id="f7ca9ca873"><path d="M 155 0.519531 L 164 0.519531 L 164 37 L 155 37 Z M 155 0.519531 " clip-rule="nonzero"/></clipPath><clipPath id="bb318ca57b"><rect x="0" width="256" y="0" height="149"/></clipPath></defs><rect x="-37.5" width="450" fill="#ffffff" y="-37.499999" height="449.999989" fill-opacity="1"/><rect x="-37.5" width="450" fill="#ebc2c6" y="-37.499999" height="449.999989" fill-opacity="1"/><g transform="matrix(1, 0, 0, 1, 59, 113)"><g clip-path="url(#bb318ca57b)"><g clip-path="url(#674f072ba5)"><g fill="#621f1f" fill-opacity="1"><g transform="translate(5.896697, 36.576432)"><g><path d="M 2.140625 0 L 2.140625 -35.609375 L 9.609375 -35.609375 C 12.671875 -35.609375 15.269531 -35.101562 17.40625 -34.09375 C 19.550781 -33.082031 21.28125 -31.726562 22.59375 -30.03125 C 23.914062 -28.332031 24.867188 -26.425781 25.453125 -24.3125 C 26.046875 -22.207031 26.34375 -20.039062 26.34375 -17.8125 C 26.34375 -16.050781 26.160156 -14.316406 25.796875 -12.609375 C 25.429688 -10.898438 24.914062 -9.285156 24.25 -7.765625 C 23.582031 -6.242188 22.785156 -4.898438 21.859375 -3.734375 C 20.929688 -2.578125 19.914062 -1.664062 18.8125 -1 C 17.707031 -0.332031 16.53125 0 15.28125 0 Z M 3.8125 -34.328125 L 3.8125 -27.453125 C 3.832031 -26.410156 3.882812 -25.164062 3.96875 -23.71875 C 4.050781 -22.269531 4.1875 -20.71875 4.375 -19.0625 C 4.570312 -17.414062 4.828125 -15.753906 5.140625 -14.078125 C 5.460938 -12.410156 5.875 -10.8125 6.375 -9.28125 C 6.875 -7.75 7.46875 -6.382812 8.15625 -5.1875 C 8.84375 -3.988281 9.648438 -3.035156 10.578125 -2.328125 C 11.503906 -1.628906 12.5625 -1.28125 13.75 -1.28125 C 14.9375 -1.28125 16 -1.671875 16.9375 -2.453125 C 17.875 -3.234375 18.671875 -4.316406 19.328125 -5.703125 C 19.992188 -7.097656 20.503906 -8.695312 20.859375 -10.5 C 21.222656 -12.3125 21.40625 -14.238281 21.40625 -16.28125 C 21.40625 -18.03125 21.25 -19.769531 20.9375 -21.5 C 20.625 -23.238281 20.15625 -24.875 19.53125 -26.40625 C 18.90625 -27.9375 18.085938 -29.300781 17.078125 -30.5 C 16.066406 -31.695312 14.863281 -32.632812 13.46875 -33.3125 C 12.082031 -33.988281 10.488281 -34.328125 8.6875 -34.328125 Z M 3.8125 -34.328125 "/></g></g></g></g><g fill="#621f1f" fill-opacity="1"><g transform="translate(31.495332, 36.576432)"><g><path d="M 1.0625 0 L 1.0625 -0.109375 C 2.175781 -1.671875 2.941406 -3.46875 3.359375 -5.5 C 3.773438 -7.53125 3.984375 -9.660156 3.984375 -11.890625 C 3.984375 -14.117188 3.773438 -16.25 3.359375 -18.28125 C 2.941406 -20.3125 2.175781 -22.113281 1.0625 -23.6875 L 1.0625 -23.78125 L 8.515625 -23.78125 L 8.515625 -23.6875 C 7.398438 -22.113281 6.632812 -20.3125 6.21875 -18.28125 C 5.800781 -16.25 5.59375 -14.117188 5.59375 -11.890625 C 5.59375 -9.660156 5.800781 -7.53125 6.21875 -5.5 C 6.632812 -3.46875 7.398438 -1.671875 8.515625 -0.109375 L 8.515625 0 Z M 4.84375 -25.671875 C 4.082031 -25.671875 3.382812 -25.851562 2.75 -26.21875 C 2.125 -26.59375 1.628906 -27.085938 1.265625 -27.703125 C 0.898438 -28.316406 0.71875 -29.003906 0.71875 -29.765625 C 0.71875 -30.523438 0.898438 -31.210938 1.265625 -31.828125 C 1.628906 -32.453125 2.125 -32.945312 2.75 -33.3125 C 3.382812 -33.675781 4.082031 -33.859375 4.84375 -33.859375 C 5.601562 -33.859375 6.289062 -33.675781 6.90625 -33.3125 C 7.519531 -32.945312 8.007812 -32.453125 8.375 -31.828125 C 8.75 -31.210938 8.9375 -30.523438 8.9375 -29.765625 C 8.9375 -29.003906 8.75 -28.316406 8.375 -27.703125 C 8.007812 -27.085938 7.519531 -26.59375 6.90625 -26.21875 C 6.289062 -25.851562 5.601562 -25.671875 4.84375 -25.671875 Z M 4.84375 -25.671875 "/></g></g></g><g fill="#621f1f" fill-opacity="1"><g transform="translate(38.900666, 36.576432)"><g><path d="M 10.109375 -9.15625 C 7.828125 -9.789062 6.023438 -10.582031 4.703125 -11.53125 C 3.390625 -12.488281 2.453125 -13.507812 1.890625 -14.59375 C 1.335938 -15.6875 1.0625 -16.757812 1.0625 -17.8125 C 1.09375 -18.894531 1.335938 -19.890625 1.796875 -20.796875 C 2.265625 -21.703125 2.851562 -22.425781 3.5625 -22.96875 C 4.269531 -23.507812 4.992188 -23.78125 5.734375 -23.78125 L 19.484375 -23.78125 L 19.484375 -15.140625 L 19.34375 -15.140625 C 18.625 -16.609375 17.734375 -17.828125 16.671875 -18.796875 C 15.617188 -19.773438 14.472656 -20.539062 13.234375 -21.09375 C 12.003906 -21.65625 10.757812 -22.050781 9.5 -22.28125 C 8.25 -22.519531 7.085938 -22.640625 6.015625 -22.640625 C 5.472656 -22.640625 4.972656 -22.367188 4.515625 -21.828125 C 4.066406 -21.285156 3.84375 -20.671875 3.84375 -19.984375 C 3.84375 -19.148438 4.097656 -18.445312 4.609375 -17.875 C 5.117188 -17.300781 5.78125 -16.804688 6.59375 -16.390625 C 7.414062 -15.984375 8.320312 -15.625 9.3125 -15.3125 C 10.300781 -15 11.253906 -14.691406 12.171875 -14.390625 C 13.359375 -14.003906 14.484375 -13.632812 15.546875 -13.28125 C 16.617188 -12.925781 17.570312 -12.5 18.40625 -12 C 19.238281 -11.5 19.890625 -10.847656 20.359375 -10.046875 C 20.835938 -9.253906 21.078125 -8.234375 21.078125 -6.984375 C 21.078125 -5.535156 20.6875 -4.257812 19.90625 -3.15625 C 19.125 -2.050781 18.015625 -1.1875 16.578125 -0.5625 C 15.140625 0.0507812 13.445312 0.359375 11.5 0.359375 C 10.21875 0.359375 9.054688 0.289062 8.015625 0.15625 C 6.972656 0.03125 5.941406 -0.21875 4.921875 -0.59375 C 3.898438 -0.976562 2.742188 -1.550781 1.453125 -2.3125 L 1.453125 -9.328125 L 1.5625 -9.328125 C 2.25 -7.972656 3.0625 -6.785156 4 -5.765625 C 4.9375 -4.742188 5.90625 -3.890625 6.90625 -3.203125 C 7.90625 -2.515625 8.851562 -1.992188 9.75 -1.640625 C 10.65625 -1.285156 11.414062 -1.109375 12.03125 -1.109375 C 12.84375 -1.109375 13.6875 -1.253906 14.5625 -1.546875 C 15.4375 -1.847656 16.1875 -2.273438 16.8125 -2.828125 C 17.445312 -3.390625 17.765625 -4.0625 17.765625 -4.84375 C 17.765625 -5.601562 17.554688 -6.207031 17.140625 -6.65625 C 16.722656 -7.101562 16.160156 -7.457031 15.453125 -7.71875 C 14.742188 -7.988281 13.925781 -8.222656 13 -8.421875 C 12.070312 -8.617188 11.109375 -8.863281 10.109375 -9.15625 Z M 10.109375 -9.15625 "/></g></g></g><g fill="#621f1f" fill-opacity="1"><g transform="translate(59.230007, 36.576432)"><g><path d="M 2.140625 -23.78125 L 13.109375 -23.78125 C 14.742188 -23.78125 16.171875 -23.472656 17.390625 -22.859375 C 18.617188 -22.242188 19.640625 -21.425781 20.453125 -20.40625 C 21.273438 -19.382812 21.882812 -18.238281 22.28125 -16.96875 C 22.6875 -15.695312 22.890625 -14.394531 22.890625 -13.0625 C 22.890625 -11.257812 22.601562 -9.550781 22.03125 -7.9375 C 21.46875 -6.320312 20.660156 -4.890625 19.609375 -3.640625 C 18.566406 -2.398438 17.3125 -1.421875 15.84375 -0.703125 C 14.375 0.00390625 12.75 0.359375 10.96875 0.359375 C 9.46875 0.359375 8.085938 0.0703125 6.828125 -0.5 C 5.578125 -1.070312 4.5625 -1.851562 3.78125 -2.84375 C 3.894531 -0.207031 4.414062 2.390625 5.34375 4.953125 C 6.269531 7.515625 7.671875 9.769531 9.546875 11.71875 L 9.546875 11.828125 L 2.140625 11.828125 Z M 3.734375 -6.375 C 3.734375 -6.039062 3.816406 -5.628906 3.984375 -5.140625 C 4.148438 -4.660156 4.40625 -4.175781 4.75 -3.6875 C 5.09375 -3.195312 5.539062 -2.789062 6.09375 -2.46875 C 6.65625 -2.15625 7.332031 -2 8.125 -2 C 9.257812 -2 10.394531 -2.390625 11.53125 -3.171875 C 12.675781 -3.953125 13.722656 -5.035156 14.671875 -6.421875 C 15.617188 -7.816406 16.382812 -9.40625 16.96875 -11.1875 C 17.550781 -12.96875 17.84375 -14.851562 17.84375 -16.84375 C 17.84375 -18.53125 17.382812 -19.894531 16.46875 -20.9375 C 15.550781 -21.976562 14.40625 -22.5 13.03125 -22.5 C 11.601562 -22.5 10.367188 -22.164062 9.328125 -21.5 C 8.285156 -20.84375 7.40625 -19.953125 6.6875 -18.828125 C 5.976562 -17.710938 5.40625 -16.488281 4.96875 -15.15625 C 4.53125 -13.832031 4.210938 -12.503906 4.015625 -11.171875 C 3.828125 -9.847656 3.734375 -8.628906 3.734375 -7.515625 Z M 3.734375 -6.375 "/></g></g></g><g fill="#621f1f" fill-opacity="1"><g transform="translate(81.375119, 36.576432)"><g><path d="M 1.421875 -9.65625 C 1.421875 -12.03125 1.800781 -14.117188 2.5625 -15.921875 C 3.320312 -17.722656 4.316406 -19.234375 5.546875 -20.453125 C 6.785156 -21.679688 8.132812 -22.601562 9.59375 -23.21875 C 11.050781 -23.832031 12.484375 -24.140625 13.890625 -24.140625 C 15.597656 -24.140625 17.101562 -23.773438 18.40625 -23.046875 C 19.71875 -22.328125 20.742188 -21.222656 21.484375 -19.734375 C 22.234375 -18.253906 22.609375 -16.390625 22.609375 -14.140625 C 22.609375 -11.929688 22.226562 -9.9375 21.46875 -8.15625 C 20.707031 -6.375 19.703125 -4.847656 18.453125 -3.578125 C 17.210938 -2.304688 15.867188 -1.332031 14.421875 -0.65625 C 12.972656 0.0195312 11.550781 0.359375 10.15625 0.359375 C 8.4375 0.359375 6.914062 -0.046875 5.59375 -0.859375 C 4.28125 -1.679688 3.253906 -2.84375 2.515625 -4.34375 C 1.785156 -5.84375 1.421875 -7.613281 1.421875 -9.65625 Z M 6.765625 -9.578125 C 6.765625 -6.921875 7.128906 -4.804688 7.859375 -3.234375 C 8.597656 -1.671875 9.625 -0.890625 10.9375 -0.890625 C 12.90625 -0.890625 14.457031 -1.976562 15.59375 -4.15625 C 16.738281 -6.34375 17.3125 -9.585938 17.3125 -13.890625 C 17.3125 -16.898438 16.945312 -19.148438 16.21875 -20.640625 C 15.5 -22.140625 14.472656 -22.890625 13.140625 -22.890625 C 11.835938 -22.890625 10.707031 -22.351562 9.75 -21.28125 C 8.800781 -20.21875 8.066406 -18.695312 7.546875 -16.71875 C 7.023438 -14.738281 6.765625 -12.359375 6.765625 -9.578125 Z M 6.765625 -9.578125 "/></g></g></g><g fill="#621f1f" fill-opacity="1"><g transform="translate(103.23541, 36.576432)"><g><path d="M 3.734375 0 L 2.140625 0 L 2.140625 -23.78125 L 8.578125 -23.78125 L 8.578125 -23.6875 C 7.628906 -22.6875 6.878906 -21.601562 6.328125 -20.4375 C 5.785156 -19.269531 5.359375 -18.046875 5.046875 -16.765625 C 4.742188 -15.484375 4.460938 -14.164062 4.203125 -12.8125 C 4.679688 -14.050781 5.359375 -15.328125 6.234375 -16.640625 C 7.109375 -17.960938 8.109375 -19.191406 9.234375 -20.328125 C 10.367188 -21.472656 11.554688 -22.394531 12.796875 -23.09375 C 14.046875 -23.789062 15.265625 -24.140625 16.453125 -24.140625 C 17.546875 -24.140625 18.394531 -23.847656 19 -23.265625 C 19.601562 -22.679688 20.039062 -21.890625 20.3125 -20.890625 C 20.582031 -19.898438 20.75 -18.785156 20.8125 -17.546875 C 20.875 -16.316406 20.890625 -15.035156 20.859375 -13.703125 L 20.828125 0 L 13.53125 0 L 13.53125 -0.109375 C 15.476562 -1.929688 16.914062 -3.878906 17.84375 -5.953125 C 18.769531 -8.035156 19.234375 -10.289062 19.234375 -12.71875 C 19.234375 -14.6875 18.75 -16.15625 17.78125 -17.125 C 16.820312 -18.101562 15.65625 -18.59375 14.28125 -18.59375 C 13.132812 -18.59375 11.953125 -18.265625 10.734375 -17.609375 C 9.515625 -16.953125 8.375 -15.984375 7.3125 -14.703125 C 6.257812 -13.421875 5.398438 -11.820312 4.734375 -9.90625 C 4.066406 -8 3.734375 -5.789062 3.734375 -3.28125 Z M 3.734375 0 "/></g></g></g><g fill="#621f1f" fill-opacity="1"><g transform="translate(124.063186, 36.576432)"><g><path d="M 1.0625 0 L 1.0625 -0.109375 C 2.175781 -1.671875 2.941406 -3.46875 3.359375 -5.5 C 3.773438 -7.53125 3.984375 -9.660156 3.984375 -11.890625 C 3.984375 -14.117188 3.773438 -16.25 3.359375 -18.28125 C 2.941406 -20.3125 2.175781 -22.113281 1.0625 -23.6875 L 1.0625 -23.78125 L 8.515625 -23.78125 L 8.515625 -23.6875 C 7.398438 -22.113281 6.632812 -20.3125 6.21875 -18.28125 C 5.800781 -16.25 5.59375 -14.117188 5.59375 -11.890625 C 5.59375 -9.660156 5.800781 -7.53125 6.21875 -5.5 C 6.632812 -3.46875 7.398438 -1.671875 8.515625 -0.109375 L 8.515625 0 Z M 4.84375 -25.671875 C 4.082031 -25.671875 3.382812 -25.851562 2.75 -26.21875 C 2.125 -26.59375 1.628906 -27.085938 1.265625 -27.703125 C 0.898438 -28.316406 0.71875 -29.003906 0.71875 -29.765625 C 0.71875 -30.523438 0.898438 -31.210938 1.265625 -31.828125 C 1.628906 -32.453125 2.125 -32.945312 2.75 -33.3125 C 3.382812 -33.675781 4.082031 -33.859375 4.84375 -33.859375 C 5.601562 -33.859375 6.289062 -33.675781 6.90625 -33.3125 C 7.519531 -32.945312 8.007812 -32.453125 8.375 -31.828125 C 8.75 -31.210938 8.9375 -30.523438 8.9375 -29.765625 C 8.9375 -29.003906 8.75 -28.316406 8.375 -27.703125 C 8.007812 -27.085938 7.519531 -26.59375 6.90625 -26.21875 C 6.289062 -25.851562 5.601562 -25.671875 4.84375 -25.671875 Z M 4.84375 -25.671875 "/></g></g></g><g clip-path="url(#d8f02ce25b)"><g fill="#621f1f" fill-opacity="1"><g transform="translate(131.46853, 36.576432)"><g><path d="M 2.140625 0 L 2.140625 -35.609375 L 9.546875 -35.609375 L 9.546875 -35.5 C 7.671875 -33.550781 6.269531 -31.296875 5.34375 -28.734375 C 4.414062 -26.171875 3.894531 -23.570312 3.78125 -20.9375 C 4.5625 -21.957031 5.570312 -22.800781 6.8125 -23.46875 C 8.0625 -24.132812 9.4375 -24.46875 10.9375 -24.46875 C 12.71875 -24.46875 14.34375 -24.09375 15.8125 -23.34375 C 17.28125 -22.59375 18.539062 -21.570312 19.59375 -20.28125 C 20.65625 -18.988281 21.46875 -17.519531 22.03125 -15.875 C 22.601562 -14.238281 22.890625 -12.519531 22.890625 -10.71875 C 22.890625 -9.414062 22.6875 -8.101562 22.28125 -6.78125 C 21.882812 -5.46875 21.273438 -4.273438 20.453125 -3.203125 C 19.640625 -2.140625 18.617188 -1.28125 17.390625 -0.625 C 16.171875 0.03125 14.742188 0.359375 13.109375 0.359375 C 12.035156 0.359375 10.992188 0.238281 9.984375 0 C 8.972656 -0.238281 8.019531 -0.46875 7.125 -0.6875 C 6.238281 -0.914062 5.421875 -1.03125 4.671875 -1.03125 C 4.171875 -1.03125 3.707031 -0.953125 3.28125 -0.796875 C 2.851562 -0.640625 2.472656 -0.375 2.140625 0 Z M 3.734375 -16.28125 C 3.734375 -15.09375 3.816406 -13.804688 3.984375 -12.421875 C 4.148438 -11.046875 4.441406 -9.679688 4.859375 -8.328125 C 5.273438 -6.972656 5.835938 -5.738281 6.546875 -4.625 C 7.265625 -3.507812 8.148438 -2.613281 9.203125 -1.9375 C 10.265625 -1.257812 11.539062 -0.921875 13.03125 -0.921875 C 13.957031 -0.921875 14.78125 -1.1875 15.5 -1.71875 C 16.226562 -2.257812 16.800781 -2.984375 17.21875 -3.890625 C 17.632812 -4.804688 17.84375 -5.820312 17.84375 -6.9375 C 17.84375 -8.9375 17.550781 -10.828125 16.96875 -12.609375 C 16.382812 -14.390625 15.617188 -15.972656 14.671875 -17.359375 C 13.722656 -18.742188 12.675781 -19.828125 11.53125 -20.609375 C 10.394531 -21.398438 9.257812 -21.796875 8.125 -21.796875 C 7.101562 -21.796875 6.265625 -21.515625 5.609375 -20.953125 C 4.953125 -20.398438 4.472656 -19.703125 4.171875 -18.859375 C 3.878906 -18.015625 3.734375 -17.15625 3.734375 -16.28125 Z M 3.734375 -16.28125 "/></g></g></g></g><g clip-path="url(#f7ca9ca873)"><g fill="#621f1f" fill-opacity="1"><g transform="translate(153.613637, 36.576432)"><g><path d="M 2.140625 -35.609375 L 9.546875 -35.609375 L 9.546875 -35.5 C 8.191406 -34.101562 7.085938 -32.535156 6.234375 -30.796875 C 5.378906 -29.066406 4.75 -27.25 4.34375 -25.34375 C 3.9375 -23.445312 3.734375 -21.550781 3.734375 -19.65625 C 3.734375 -17.851562 3.851562 -15.925781 4.09375 -13.875 C 4.332031 -11.820312 4.8125 -9.648438 5.53125 -7.359375 C 6.257812 -5.066406 7.320312 -2.648438 8.71875 -0.109375 L 8.71875 0 L 2.140625 0 Z M 2.140625 -35.609375 "/></g></g></g></g><g fill="#621f1f" fill-opacity="1"><g transform="translate(162.05147, 36.576432)"><g><path d="M 12.5 0.359375 C 10.570312 0.359375 8.890625 0.0390625 7.453125 -0.59375 C 6.023438 -1.238281 4.84375 -2.117188 3.90625 -3.234375 C 2.96875 -4.359375 2.257812 -5.617188 1.78125 -7.015625 C 1.300781 -8.410156 1.0625 -9.859375 1.0625 -11.359375 C 1.0625 -12.898438 1.304688 -14.40625 1.796875 -15.875 C 2.285156 -17.351562 2.96875 -18.691406 3.84375 -19.890625 C 4.71875 -21.085938 5.75 -22.035156 6.9375 -22.734375 C 8.125 -23.429688 9.429688 -23.78125 10.859375 -23.78125 L 16.984375 -23.78125 C 17.890625 -23.78125 18.644531 -23.273438 19.25 -22.265625 C 19.851562 -21.265625 20.15625 -19.882812 20.15625 -18.125 C 20.15625 -16.0625 19.800781 -14.25 19.09375 -12.6875 C 18.394531 -11.132812 17.359375 -9.925781 15.984375 -9.0625 C 14.609375 -8.195312 12.898438 -7.765625 10.859375 -7.765625 C 9.910156 -7.765625 9.070312 -7.875 8.34375 -8.09375 C 7.625 -8.320312 6.992188 -8.59375 6.453125 -8.90625 C 6.609375 -7.476562 6.898438 -6.171875 7.328125 -4.984375 C 7.753906 -3.796875 8.347656 -2.84375 9.109375 -2.125 C 9.867188 -1.414062 10.820312 -1.0625 11.96875 -1.0625 C 13.125 -1.0625 14.160156 -1.328125 15.078125 -1.859375 C 15.992188 -2.398438 16.796875 -3.101562 17.484375 -3.96875 C 18.171875 -4.832031 18.765625 -5.765625 19.265625 -6.765625 L 19.375 -6.765625 L 19.375 -1.921875 C 18.914062 -1.378906 18.300781 -0.9375 17.53125 -0.59375 C 16.757812 -0.25 15.9375 -0.00390625 15.0625 0.140625 C 14.1875 0.285156 13.332031 0.359375 12.5 0.359375 Z M 6.34375 -10.546875 C 6.90625 -10.347656 7.566406 -10.25 8.328125 -10.25 C 9.398438 -10.25 10.492188 -10.546875 11.609375 -11.140625 C 12.722656 -11.734375 13.753906 -12.519531 14.703125 -13.5 C 15.648438 -14.488281 16.414062 -15.59375 17 -16.8125 C 17.582031 -18.039062 17.875 -19.273438 17.875 -20.515625 C 17.875 -21.203125 17.679688 -21.660156 17.296875 -21.890625 C 16.921875 -22.128906 16.4375 -22.257812 15.84375 -22.28125 C 15.25 -22.3125 14.632812 -22.328125 14 -22.328125 C 12.8125 -22.328125 11.738281 -22.023438 10.78125 -21.421875 C 9.832031 -20.816406 9.023438 -20.003906 8.359375 -18.984375 C 7.703125 -17.960938 7.203125 -16.8125 6.859375 -15.53125 C 6.515625 -14.25 6.34375 -12.941406 6.34375 -11.609375 C 6.34375 -11.441406 6.34375 -11.269531 6.34375 -11.09375 C 6.34375 -10.914062 6.34375 -10.734375 6.34375 -10.546875 Z M 6.34375 -10.546875 "/></g></g></g><g fill="#621f1f" fill-opacity="1"><g transform="translate(181.099089, 36.576432)"><g/></g></g><g fill="#621f1f" fill-opacity="1"><g transform="translate(191.388298, 36.576432)"><g><path d="M 10.109375 -9.15625 C 7.828125 -9.789062 6.023438 -10.582031 4.703125 -11.53125 C 3.390625 -12.488281 2.453125 -13.507812 1.890625 -14.59375 C 1.335938 -15.6875 1.0625 -16.757812 1.0625 -17.8125 C 1.09375 -18.894531 1.335938 -19.890625 1.796875 -20.796875 C 2.265625 -21.703125 2.851562 -22.425781 3.5625 -22.96875 C 4.269531 -23.507812 4.992188 -23.78125 5.734375 -23.78125 L 19.484375 -23.78125 L 19.484375 -15.140625 L 19.34375 -15.140625 C 18.625 -16.609375 17.734375 -17.828125 16.671875 -18.796875 C 15.617188 -19.773438 14.472656 -20.539062 13.234375 -21.09375 C 12.003906 -21.65625 10.757812 -22.050781 9.5 -22.28125 C 8.25 -22.519531 7.085938 -22.640625 6.015625 -22.640625 C 5.472656 -22.640625 4.972656 -22.367188 4.515625 -21.828125 C 4.066406 -21.285156 3.84375 -20.671875 3.84375 -19.984375 C 3.84375 -19.148438 4.097656 -18.445312 4.609375 -17.875 C 5.117188 -17.300781 5.78125 -16.804688 6.59375 -16.390625 C 7.414062 -15.984375 8.320312 -15.625 9.3125 -15.3125 C 10.300781 -15 11.253906 -14.691406 12.171875 -14.390625 C 13.359375 -14.003906 14.484375 -13.632812 15.546875 -13.28125 C 16.617188 -12.925781 17.570312 -12.5 18.40625 -12 C 19.238281 -11.5 19.890625 -10.847656 20.359375 -10.046875 C 20.835938 -9.253906 21.078125 -8.234375 21.078125 -6.984375 C 21.078125 -5.535156 20.6875 -4.257812 19.90625 -3.15625 C 19.125 -2.050781 18.015625 -1.1875 16.578125 -0.5625 C 15.140625 0.0507812 13.445312 0.359375 11.5 0.359375 C 10.21875 0.359375 9.054688 0.289062 8.015625 0.15625 C 6.972656 0.03125 5.941406 -0.21875 4.921875 -0.59375 C 3.898438 -0.976562 2.742188 -1.550781 1.453125 -2.3125 L 1.453125 -9.328125 L 1.5625 -9.328125 C 2.25 -7.972656 3.0625 -6.785156 4 -5.765625 C 4.9375 -4.742188 5.90625 -3.890625 6.90625 -3.203125 C 7.90625 -2.515625 8.851562 -1.992188 9.75 -1.640625 C 10.65625 -1.285156 11.414062 -1.109375 12.03125 -1.109375 C 12.84375 -1.109375 13.6875 -1.253906 14.5625 -1.546875 C 15.4375 -1.847656 16.1875 -2.273438 16.8125 -2.828125 C 17.445312 -3.390625 17.765625 -4.0625 17.765625 -4.84375 C 17.765625 -5.601562 17.554688 -6.207031 17.140625 -6.65625 C 16.722656 -7.101562 16.160156 -7.457031 15.453125 -7.71875 C 14.742188 -7.988281 13.925781 -8.222656 13 -8.421875 C 12.070312 -8.617188 11.109375 -8.863281 10.109375 -9.15625 Z M 10.109375 -9.15625 "/></g></g></g><g fill="#621f1f" fill-opacity="1"><g transform="translate(211.717629, 36.576432)"><g><path d="M 6.546875 0.359375 C 5.460938 0.359375 4.613281 0.0664062 4 -0.515625 C 3.394531 -1.097656 2.957031 -1.882812 2.6875 -2.875 C 2.414062 -3.875 2.25 -5 2.1875 -6.25 C 2.125 -7.5 2.109375 -8.773438 2.140625 -10.078125 L 2.171875 -23.78125 L 9.46875 -23.78125 L 9.46875 -23.6875 C 7.519531 -21.851562 6.082031 -19.894531 5.15625 -17.8125 C 4.238281 -15.738281 3.78125 -13.492188 3.78125 -11.078125 C 3.78125 -10.191406 3.890625 -9.3125 4.109375 -8.4375 C 4.335938 -7.5625 4.742188 -6.832031 5.328125 -6.25 C 5.910156 -5.664062 6.722656 -5.375 7.765625 -5.375 C 9.492188 -5.375 11.015625 -5.765625 12.328125 -6.546875 C 13.648438 -7.335938 14.75 -8.425781 15.625 -9.8125 C 16.507812 -11.195312 17.171875 -12.800781 17.609375 -14.625 C 18.046875 -16.457031 18.265625 -18.421875 18.265625 -20.515625 L 18.265625 -23.78125 L 19.875 -23.78125 L 19.875 0 L 13.421875 0 L 13.421875 -0.109375 C 14.398438 -1.109375 15.160156 -2.1875 15.703125 -3.34375 C 16.242188 -4.507812 16.671875 -5.734375 16.984375 -7.015625 C 17.296875 -8.296875 17.570312 -9.613281 17.8125 -10.96875 C 17.351562 -9.726562 16.734375 -8.445312 15.953125 -7.125 C 15.171875 -5.8125 14.28125 -4.585938 13.28125 -3.453125 C 12.28125 -2.316406 11.203125 -1.394531 10.046875 -0.6875 C 8.898438 0.0078125 7.734375 0.359375 6.546875 0.359375 Z M 6.546875 0.359375 "/></g></g></g><g fill="#621f1f" fill-opacity="1"><g transform="translate(231.548534, 36.576432)"><g><path d="M 8.515625 0 L 1.0625 0 L 1.0625 -0.109375 C 2.175781 -1.671875 2.941406 -3.46875 3.359375 -5.5 C 3.773438 -7.53125 3.984375 -9.660156 3.984375 -11.890625 C 3.984375 -14.117188 3.773438 -16.25 3.359375 -18.28125 C 2.941406 -20.3125 2.175781 -22.113281 1.0625 -23.6875 L 1.0625 -23.78125 L 5.59375 -23.828125 L 5.59375 -16.875 C 6.113281 -18.28125 6.851562 -19.523438 7.8125 -20.609375 C 8.78125 -21.703125 9.910156 -22.5625 11.203125 -23.1875 C 12.492188 -23.820312 13.875 -24.140625 15.34375 -24.140625 C 15.96875 -24.140625 16.515625 -24.109375 16.984375 -24.046875 C 17.460938 -23.992188 17.960938 -23.90625 18.484375 -23.78125 L 18.484375 -16.375 L 18.375 -16.375 C 18 -17.226562 17.304688 -17.894531 16.296875 -18.375 C 15.285156 -18.851562 14.207031 -19.09375 13.0625 -19.09375 C 11.707031 -19.09375 10.460938 -18.84375 9.328125 -18.34375 C 8.191406 -17.84375 7.285156 -17.144531 6.609375 -16.25 C 5.929688 -15.363281 5.59375 -14.335938 5.59375 -13.171875 L 5.59375 -11.890625 C 5.59375 -9.660156 5.800781 -7.53125 6.21875 -5.5 C 6.632812 -3.46875 7.398438 -1.671875 8.515625 -0.109375 Z M 8.515625 0 "/></g></g></g><g fill="#621f1f" fill-opacity="1"><g transform="translate(1.03624, 86.181091)"><g><path d="M 2.140625 -23.78125 L 13.109375 -23.78125 C 14.742188 -23.78125 16.171875 -23.472656 17.390625 -22.859375 C 18.617188 -22.242188 19.640625 -21.425781 20.453125 -20.40625 C 21.273438 -19.382812 21.882812 -18.238281 22.28125 -16.96875 C 22.6875 -15.695312 22.890625 -14.394531 22.890625 -13.0625 C 22.890625 -11.257812 22.601562 -9.550781 22.03125 -7.9375 C 21.46875 -6.320312 20.660156 -4.890625 19.609375 -3.640625 C 18.566406 -2.398438 17.3125 -1.421875 15.84375 -0.703125 C 14.375 0.00390625 12.75 0.359375 10.96875 0.359375 C 9.46875 0.359375 8.085938 0.0703125 6.828125 -0.5 C 5.578125 -1.070312 4.5625 -1.851562 3.78125 -2.84375 C 3.894531 -0.207031 4.414062 2.390625 5.34375 4.953125 C 6.269531 7.515625 7.671875 9.769531 9.546875 11.71875 L 9.546875 11.828125 L 2.140625 11.828125 Z M 3.734375 -6.375 C 3.734375 -6.039062 3.816406 -5.628906 3.984375 -5.140625 C 4.148438 -4.660156 4.40625 -4.175781 4.75 -3.6875 C 5.09375 -3.195312 5.539062 -2.789062 6.09375 -2.46875 C 6.65625 -2.15625 7.332031 -2 8.125 -2 C 9.257812 -2 10.394531 -2.390625 11.53125 -3.171875 C 12.675781 -3.953125 13.722656 -5.035156 14.671875 -6.421875 C 15.617188 -7.816406 16.382812 -9.40625 16.96875 -11.1875 C 17.550781 -12.96875 17.84375 -14.851562 17.84375 -16.84375 C 17.84375 -18.53125 17.382812 -19.894531 16.46875 -20.9375 C 15.550781 -21.976562 14.40625 -22.5 13.03125 -22.5 C 11.601562 -22.5 10.367188 -22.164062 9.328125 -21.5 C 8.285156 -20.84375 7.40625 -19.953125 6.6875 -18.828125 C 5.976562 -17.710938 5.40625 -16.488281 4.96875 -15.15625 C 4.53125 -13.832031 4.210938 -12.503906 4.015625 -11.171875 C 3.828125 -9.847656 3.734375 -8.628906 3.734375 -7.515625 Z M 3.734375 -6.375 "/></g></g></g><g fill="#621f1f" fill-opacity="1"><g transform="translate(23.181353, 86.181091)"><g><path d="M 8.515625 0 L 1.0625 0 L 1.0625 -0.109375 C 2.175781 -1.671875 2.941406 -3.46875 3.359375 -5.5 C 3.773438 -7.53125 3.984375 -9.660156 3.984375 -11.890625 C 3.984375 -14.117188 3.773438 -16.25 3.359375 -18.28125 C 2.941406 -20.3125 2.175781 -22.113281 1.0625 -23.6875 L 1.0625 -23.78125 L 5.59375 -23.828125 L 5.59375 -16.875 C 6.113281 -18.28125 6.851562 -19.523438 7.8125 -20.609375 C 8.78125 -21.703125 9.910156 -22.5625 11.203125 -23.1875 C 12.492188 -23.820312 13.875 -24.140625 15.34375 -24.140625 C 15.96875 -24.140625 16.515625 -24.109375 16.984375 -24.046875 C 17.460938 -23.992188 17.960938 -23.90625 18.484375 -23.78125 L 18.484375 -16.375 L 18.375 -16.375 C 18 -17.226562 17.304688 -17.894531 16.296875 -18.375 C 15.285156 -18.851562 14.207031 -19.09375 13.0625 -19.09375 C 11.707031 -19.09375 10.460938 -18.84375 9.328125 -18.34375 C 8.191406 -17.84375 7.285156 -17.144531 6.609375 -16.25 C 5.929688 -15.363281 5.59375 -14.335938 5.59375 -13.171875 L 5.59375 -11.890625 C 5.59375 -9.660156 5.800781 -7.53125 6.21875 -5.5 C 6.632812 -3.46875 7.398438 -1.671875 8.515625 -0.109375 Z M 8.515625 0 "/></g></g></g><g fill="#621f1f" fill-opacity="1"><g transform="translate(40.555616, 86.181091)"><g><path d="M 1.0625 -11.359375 C 1.0625 -12.898438 1.304688 -14.40625 1.796875 -15.875 C 2.285156 -17.351562 2.96875 -18.691406 3.84375 -19.890625 C 4.71875 -21.085938 5.75 -22.035156 6.9375 -22.734375 C 8.125 -23.429688 9.429688 -23.78125 10.859375 -23.78125 L 16.984375 -23.78125 C 17.890625 -23.78125 18.644531 -23.273438 19.25 -22.265625 C 19.851562 -21.265625 20.15625 -19.882812 20.15625 -18.125 C 20.15625 -16.0625 19.800781 -14.25 19.09375 -12.6875 C 18.394531 -11.132812 17.359375 -9.925781 15.984375 -9.0625 C 14.609375 -8.195312 12.898438 -7.765625 10.859375 -7.765625 C 9.910156 -7.765625 9.070312 -7.875 8.34375 -8.09375 C 7.625 -8.320312 6.992188 -8.59375 6.453125 -8.90625 C 6.609375 -7.476562 6.898438 -6.171875 7.328125 -4.984375 C 7.753906 -3.796875 8.347656 -2.84375 9.109375 -2.125 C 9.867188 -1.414062 10.820312 -1.0625 11.96875 -1.0625 C 13.125 -1.0625 14.160156 -1.328125 15.078125 -1.859375 C 15.992188 -2.398438 16.796875 -3.101562 17.484375 -3.96875 C 18.171875 -4.832031 18.765625 -5.765625 19.265625 -6.765625 L 19.375 -6.765625 L 19.375 -1.921875 C 18.914062 -1.378906 18.300781 -0.9375 17.53125 -0.59375 C 16.757812 -0.25 15.9375 -0.00390625 15.0625 0.140625 C 14.1875 0.285156 13.332031 0.359375 12.5 0.359375 C 10.570312 0.359375 8.890625 0.0390625 7.453125 -0.59375 C 6.023438 -1.238281 4.84375 -2.117188 3.90625 -3.234375 C 2.96875 -4.359375 2.257812 -5.617188 1.78125 -7.015625 C 1.300781 -8.410156 1.0625 -9.859375 1.0625 -11.359375 Z M 6.34375 -10.546875 C 6.90625 -10.347656 7.566406 -10.25 8.328125 -10.25 C 9.398438 -10.25 10.492188 -10.546875 11.609375 -11.140625 C 12.722656 -11.734375 13.753906 -12.519531 14.703125 -13.5 C 15.648438 -14.488281 16.414062 -15.59375 17 -16.8125 C 17.582031 -18.039062 17.875 -19.273438 17.875 -20.515625 C 17.875 -21.203125 17.679688 -21.660156 17.296875 -21.890625 C 16.921875 -22.128906 16.4375 -22.257812 15.84375 -22.28125 C 15.25 -22.3125 14.632812 -22.328125 14 -22.328125 C 12.8125 -22.328125 11.738281 -22.023438 10.78125 -21.421875 C 9.832031 -20.816406 9.023438 -20.003906 8.359375 -18.984375 C 7.703125 -17.960938 7.203125 -16.8125 6.859375 -15.53125 C 6.515625 -14.25 6.34375 -12.941406 6.34375 -11.609375 C 6.34375 -11.441406 6.34375 -11.269531 6.34375 -11.09375 C 6.34375 -10.914062 6.34375 -10.734375 6.34375 -10.546875 Z M 10.9375 -26.640625 C 10.675781 -26.640625 10.429688 -26.660156 10.203125 -26.703125 C 9.972656 -26.753906 9.800781 -26.847656 9.6875 -26.984375 C 10.582031 -27.390625 11.414062 -27.941406 12.1875 -28.640625 C 12.96875 -29.347656 13.640625 -30.195312 14.203125 -31.1875 L 15.921875 -29.453125 C 15.515625 -28.992188 15.007812 -28.546875 14.40625 -28.109375 C 13.800781 -27.671875 13.1875 -27.316406 12.5625 -27.046875 C 11.945312 -26.773438 11.40625 -26.640625 10.9375 -26.640625 Z M 10.9375 -26.640625 "/></g></g></g><g fill="#621f1f" fill-opacity="1"><g transform="translate(59.60324, 86.181091)"><g><path d="M 13.109375 0.359375 C 11.679688 0.359375 10.269531 0.0664062 8.875 -0.515625 C 7.488281 -1.097656 6.238281 -1.957031 5.125 -3.09375 C 4.007812 -4.238281 3.113281 -5.644531 2.4375 -7.3125 C 1.757812 -8.988281 1.421875 -10.90625 1.421875 -13.0625 C 1.421875 -14.539062 1.644531 -15.925781 2.09375 -17.21875 C 2.550781 -18.507812 3.125 -19.644531 3.8125 -20.625 C 4.5 -21.613281 5.203125 -22.382812 5.921875 -22.9375 C 6.648438 -23.5 7.300781 -23.78125 7.875 -23.78125 L 19.296875 -23.78125 L 19.296875 -15.140625 L 19.1875 -15.140625 C 18.238281 -17.109375 17.171875 -18.628906 15.984375 -19.703125 C 14.796875 -20.785156 13.519531 -21.546875 12.15625 -21.984375 C 10.789062 -22.421875 9.382812 -22.640625 7.9375 -22.640625 C 7.582031 -22.640625 7.203125 -22.378906 6.796875 -21.859375 C 6.398438 -21.335938 6.0625 -20.648438 5.78125 -19.796875 C 5.507812 -18.941406 5.375 -17.992188 5.375 -16.953125 C 5.375 -13.867188 5.800781 -11.398438 6.65625 -9.546875 C 7.507812 -7.691406 8.65625 -6.351562 10.09375 -5.53125 C 11.53125 -4.71875 13.128906 -4.3125 14.890625 -4.3125 C 15.878906 -4.3125 16.726562 -4.453125 17.4375 -4.734375 C 18.15625 -5.015625 18.757812 -5.332031 19.25 -5.6875 C 19.738281 -6.050781 20.113281 -6.351562 20.375 -6.59375 L 20.515625 -6.484375 C 20.390625 -4.222656 19.660156 -2.515625 18.328125 -1.359375 C 17.003906 -0.210938 15.265625 0.359375 13.109375 0.359375 Z M 13.109375 0.359375 "/></g></g></g><g fill="#621f1f" fill-opacity="1"><g transform="translate(79.006893, 86.181091)"><g><path d="M 1.421875 -9.65625 C 1.421875 -12.03125 1.800781 -14.117188 2.5625 -15.921875 C 3.320312 -17.722656 4.316406 -19.234375 5.546875 -20.453125 C 6.785156 -21.679688 8.132812 -22.601562 9.59375 -23.21875 C 11.050781 -23.832031 12.484375 -24.140625 13.890625 -24.140625 C 15.597656 -24.140625 17.101562 -23.773438 18.40625 -23.046875 C 19.71875 -22.328125 20.742188 -21.222656 21.484375 -19.734375 C 22.234375 -18.253906 22.609375 -16.390625 22.609375 -14.140625 C 22.609375 -11.929688 22.226562 -9.9375 21.46875 -8.15625 C 20.707031 -6.375 19.703125 -4.847656 18.453125 -3.578125 C 17.210938 -2.304688 15.867188 -1.332031 14.421875 -0.65625 C 12.972656 0.0195312 11.550781 0.359375 10.15625 0.359375 C 8.4375 0.359375 6.914062 -0.046875 5.59375 -0.859375 C 4.28125 -1.679688 3.253906 -2.84375 2.515625 -4.34375 C 1.785156 -5.84375 1.421875 -7.613281 1.421875 -9.65625 Z M 6.765625 -9.578125 C 6.765625 -6.921875 7.128906 -4.804688 7.859375 -3.234375 C 8.597656 -1.671875 9.625 -0.890625 10.9375 -0.890625 C 12.90625 -0.890625 14.457031 -1.976562 15.59375 -4.15625 C 16.738281 -6.34375 17.3125 -9.585938 17.3125 -13.890625 C 17.3125 -16.898438 16.945312 -19.148438 16.21875 -20.640625 C 15.5 -22.140625 14.472656 -22.890625 13.140625 -22.890625 C 11.835938 -22.890625 10.707031 -22.351562 9.75 -21.28125 C 8.800781 -20.21875 8.066406 -18.695312 7.546875 -16.71875 C 7.023438 -14.738281 6.765625 -12.359375 6.765625 -9.578125 Z M 6.765625 -9.578125 "/></g></g></g><g fill="#621f1f" fill-opacity="1"><g transform="translate(100.867179, 86.181091)"><g><path d="M 3.734375 0 L 2.140625 0 L 2.140625 -23.78125 L 8.578125 -23.78125 L 8.578125 -23.6875 C 7.628906 -22.6875 6.878906 -21.601562 6.328125 -20.4375 C 5.785156 -19.269531 5.359375 -18.046875 5.046875 -16.765625 C 4.742188 -15.484375 4.460938 -14.164062 4.203125 -12.8125 C 4.679688 -14.050781 5.304688 -15.328125 6.078125 -16.640625 C 6.847656 -17.960938 7.726562 -19.191406 8.71875 -20.328125 C 9.71875 -21.472656 10.789062 -22.394531 11.9375 -23.09375 C 13.09375 -23.789062 14.265625 -24.140625 15.453125 -24.140625 C 16.546875 -24.140625 17.394531 -23.847656 18 -23.265625 C 18.601562 -22.679688 19.039062 -21.890625 19.3125 -20.890625 C 19.59375 -19.898438 19.757812 -18.785156 19.8125 -17.546875 C 19.875 -16.316406 19.894531 -15.035156 19.875 -13.703125 L 19.875 -13.109375 C 20.34375 -14.316406 20.96875 -15.566406 21.75 -16.859375 C 22.539062 -18.148438 23.425781 -19.347656 24.40625 -20.453125 C 25.394531 -21.554688 26.453125 -22.445312 27.578125 -23.125 C 28.703125 -23.800781 29.847656 -24.140625 31.015625 -24.140625 C 32.109375 -24.140625 32.957031 -23.847656 33.5625 -23.265625 C 34.164062 -22.679688 34.601562 -21.890625 34.875 -20.890625 C 35.144531 -19.898438 35.3125 -18.785156 35.375 -17.546875 C 35.4375 -16.316406 35.457031 -15.035156 35.4375 -13.703125 L 35.390625 0 L 28.09375 0 L 28.09375 -0.109375 C 30.039062 -1.929688 31.476562 -3.878906 32.40625 -5.953125 C 33.332031 -8.035156 33.796875 -10.289062 33.796875 -12.71875 C 33.796875 -14.726562 33.351562 -16.203125 32.46875 -17.140625 C 31.59375 -18.078125 30.523438 -18.546875 29.265625 -18.546875 C 28.109375 -18.546875 26.890625 -18.160156 25.609375 -17.390625 C 24.328125 -16.617188 23.160156 -15.503906 22.109375 -14.046875 C 21.066406 -12.585938 20.320312 -10.8125 19.875 -8.71875 L 19.828125 0 L 12.53125 0 L 12.53125 -0.109375 C 14.476562 -1.929688 15.914062 -3.878906 16.84375 -5.953125 C 17.769531 -8.035156 18.234375 -10.289062 18.234375 -12.71875 C 18.234375 -14.6875 17.78125 -16.15625 16.875 -17.125 C 15.976562 -18.101562 14.890625 -18.59375 13.609375 -18.59375 C 12.535156 -18.59375 11.425781 -18.265625 10.28125 -17.609375 C 9.144531 -16.953125 8.078125 -15.984375 7.078125 -14.703125 C 6.085938 -13.421875 5.28125 -11.820312 4.65625 -9.90625 C 4.039062 -8 3.734375 -5.789062 3.734375 -3.28125 Z M 3.734375 0 "/></g></g></g><g fill="#621f1f" fill-opacity="1"><g transform="translate(136.256723, 86.181091)"><g><path d="M 3.734375 0 L 2.140625 0 L 2.140625 -23.78125 L 8.578125 -23.78125 L 8.578125 -23.6875 C 7.628906 -22.6875 6.878906 -21.601562 6.328125 -20.4375 C 5.785156 -19.269531 5.359375 -18.046875 5.046875 -16.765625 C 4.742188 -15.484375 4.460938 -14.164062 4.203125 -12.8125 C 4.679688 -14.050781 5.304688 -15.328125 6.078125 -16.640625 C 6.847656 -17.960938 7.726562 -19.191406 8.71875 -20.328125 C 9.71875 -21.472656 10.789062 -22.394531 11.9375 -23.09375 C 13.09375 -23.789062 14.265625 -24.140625 15.453125 -24.140625 C 16.546875 -24.140625 17.394531 -23.847656 18 -23.265625 C 18.601562 -22.679688 19.039062 -21.890625 19.3125 -20.890625 C 19.59375 -19.898438 19.757812 -18.785156 19.8125 -17.546875 C 19.875 -16.316406 19.894531 -15.035156 19.875 -13.703125 L 19.875 -13.109375 C 20.34375 -14.316406 20.96875 -15.566406 21.75 -16.859375 C 22.539062 -18.148438 23.425781 -19.347656 24.40625 -20.453125 C 25.394531 -21.554688 26.453125 -22.445312 27.578125 -23.125 C 28.703125 -23.800781 29.847656 -24.140625 31.015625 -24.140625 C 32.109375 -24.140625 32.957031 -23.847656 33.5625 -23.265625 C 34.164062 -22.679688 34.601562 -21.890625 34.875 -20.890625 C 35.144531 -19.898438 35.3125 -18.785156 35.375 -17.546875 C 35.4375 -16.316406 35.457031 -15.035156 35.4375 -13.703125 L 35.390625 0 L 28.09375 0 L 28.09375 -0.109375 C 30.039062 -1.929688 31.476562 -3.878906 32.40625 -5.953125 C 33.332031 -8.035156 33.796875 -10.289062 33.796875 -12.71875 C 33.796875 -14.726562 33.351562 -16.203125 32.46875 -17.140625 C 31.59375 -18.078125 30.523438 -18.546875 29.265625 -18.546875 C 28.109375 -18.546875 26.890625 -18.160156 25.609375 -17.390625 C 24.328125 -16.617188 23.160156 -15.503906 22.109375 -14.046875 C 21.066406 -12.585938 20.320312 -10.8125 19.875 -8.71875 L 19.828125 0 L 12.53125 0 L 12.53125 -0.109375 C 14.476562 -1.929688 15.914062 -3.878906 16.84375 -5.953125 C 17.769531 -8.035156 18.234375 -10.289062 18.234375 -12.71875 C 18.234375 -14.6875 17.78125 -16.15625 16.875 -17.125 C 15.976562 -18.101562 14.890625 -18.59375 13.609375 -18.59375 C 12.535156 -18.59375 11.425781 -18.265625 10.28125 -17.609375 C 9.144531 -16.953125 8.078125 -15.984375 7.078125 -14.703125 C 6.085938 -13.421875 5.28125 -11.820312 4.65625 -9.90625 C 4.039062 -8 3.734375 -5.789062 3.734375 -3.28125 Z M 3.734375 0 "/></g></g></g><g fill="#621f1f" fill-opacity="1"><g transform="translate(171.646268, 86.181091)"><g><path d="M 7.4375 0.359375 C 6.226562 0.359375 5.171875 0.0664062 4.265625 -0.515625 C 3.367188 -1.097656 2.671875 -1.882812 2.171875 -2.875 C 1.671875 -3.875 1.421875 -5.015625 1.421875 -6.296875 C 1.421875 -7.796875 1.679688 -9.054688 2.203125 -10.078125 C 2.722656 -11.097656 3.421875 -11.945312 4.296875 -12.625 C 5.179688 -13.300781 6.171875 -13.835938 7.265625 -14.234375 C 8.359375 -14.640625 9.484375 -14.972656 10.640625 -15.234375 C 11.804688 -15.492188 12.921875 -15.71875 13.984375 -15.90625 C 15.054688 -16.101562 16.015625 -16.320312 16.859375 -16.5625 C 17.703125 -16.800781 18.347656 -17.109375 18.796875 -17.484375 C 18.703125 -18.191406 18.453125 -18.921875 18.046875 -19.671875 C 17.648438 -20.421875 17.039062 -21.054688 16.21875 -21.578125 C 15.394531 -22.097656 14.285156 -22.359375 12.890625 -22.359375 C 12.203125 -22.359375 11.429688 -22.265625 10.578125 -22.078125 C 9.722656 -21.890625 8.726562 -21.457031 7.59375 -20.78125 C 6.46875 -20.101562 5.144531 -19.050781 3.625 -17.625 L 3.484375 -17.625 L 3.484375 -23.78125 L 13.109375 -23.78125 C 15.316406 -23.78125 17.101562 -23.117188 18.46875 -21.796875 C 19.832031 -20.484375 20.515625 -18.628906 20.515625 -16.234375 L 20.515625 0 L 14.640625 0 L 14.640625 -0.109375 C 15.753906 -1.816406 16.59375 -3.410156 17.15625 -4.890625 C 17.726562 -6.378906 18.140625 -7.75 18.390625 -9 C 18.640625 -10.257812 18.800781 -11.398438 18.875 -12.421875 C 17.925781 -9.648438 16.945312 -7.3125 15.9375 -5.40625 C 14.925781 -3.507812 13.742188 -2.070312 12.390625 -1.09375 C 11.035156 -0.125 9.382812 0.359375 7.4375 0.359375 Z M 6.6875 -6.796875 C 6.6875 -5.847656 6.910156 -5.007812 7.359375 -4.28125 C 7.816406 -3.5625 8.5 -3.203125 9.40625 -3.203125 C 10.300781 -3.203125 11.164062 -3.492188 12 -4.078125 C 12.832031 -4.660156 13.601562 -5.421875 14.3125 -6.359375 C 15.03125 -7.296875 15.675781 -8.316406 16.25 -9.421875 C 16.832031 -10.523438 17.332031 -11.613281 17.75 -12.6875 C 18.164062 -13.769531 18.492188 -14.738281 18.734375 -15.59375 C 16.234375 -14.976562 14.082031 -14.335938 12.28125 -13.671875 C 10.476562 -13.003906 9.09375 -12.140625 8.125 -11.078125 C 7.164062 -10.023438 6.6875 -8.597656 6.6875 -6.796875 Z M 6.6875 -6.796875 "/></g></g></g><g fill="#621f1f" fill-opacity="1"><g transform="translate(192.118015, 86.181091)"><g><path d="M 3.734375 0 L 2.140625 0 L 2.140625 -23.78125 L 8.578125 -23.78125 L 8.578125 -23.6875 C 7.628906 -22.6875 6.878906 -21.601562 6.328125 -20.4375 C 5.785156 -19.269531 5.359375 -18.046875 5.046875 -16.765625 C 4.742188 -15.484375 4.460938 -14.164062 4.203125 -12.8125 C 4.679688 -14.050781 5.359375 -15.328125 6.234375 -16.640625 C 7.109375 -17.960938 8.109375 -19.191406 9.234375 -20.328125 C 10.367188 -21.472656 11.554688 -22.394531 12.796875 -23.09375 C 14.046875 -23.789062 15.265625 -24.140625 16.453125 -24.140625 C 17.546875 -24.140625 18.394531 -23.847656 19 -23.265625 C 19.601562 -22.679688 20.039062 -21.890625 20.3125 -20.890625 C 20.582031 -19.898438 20.75 -18.785156 20.8125 -17.546875 C 20.875 -16.316406 20.890625 -15.035156 20.859375 -13.703125 L 20.828125 0 L 13.53125 0 L 13.53125 -0.109375 C 15.476562 -1.929688 16.914062 -3.878906 17.84375 -5.953125 C 18.769531 -8.035156 19.234375 -10.289062 19.234375 -12.71875 C 19.234375 -14.6875 18.75 -16.15625 17.78125 -17.125 C 16.820312 -18.101562 15.65625 -18.59375 14.28125 -18.59375 C 13.132812 -18.59375 11.953125 -18.265625 10.734375 -17.609375 C 9.515625 -16.953125 8.375 -15.984375 7.3125 -14.703125 C 6.257812 -13.421875 5.398438 -11.820312 4.734375 -9.90625 C 4.066406 -8 3.734375 -5.789062 3.734375 -3.28125 Z M 3.734375 0 "/></g></g></g><g fill="#621f1f" fill-opacity="1"><g transform="translate(212.945811, 86.181091)"><g><path d="M 1.0625 -10.71875 C 1.0625 -12.519531 1.347656 -14.238281 1.921875 -15.875 C 2.492188 -17.519531 3.304688 -18.988281 4.359375 -20.28125 C 5.421875 -21.570312 6.6875 -22.59375 8.15625 -23.34375 C 9.625 -24.09375 11.25 -24.46875 13.03125 -24.46875 C 14.53125 -24.46875 15.898438 -24.132812 17.140625 -23.46875 C 18.390625 -22.800781 19.40625 -21.957031 20.1875 -20.9375 C 20.070312 -23.570312 19.550781 -26.171875 18.625 -28.734375 C 17.695312 -31.296875 16.296875 -33.550781 14.421875 -35.5 L 14.421875 -35.609375 L 21.828125 -35.609375 L 21.828125 0 C 21.492188 -0.375 21.113281 -0.640625 20.6875 -0.796875 C 20.257812 -0.953125 19.796875 -1.03125 19.296875 -1.03125 C 18.566406 -1.03125 17.75 -0.914062 16.84375 -0.6875 C 15.9375 -0.46875 14.976562 -0.238281 13.96875 0 C 12.96875 0.238281 11.929688 0.359375 10.859375 0.359375 C 9.222656 0.359375 7.789062 0.03125 6.5625 -0.625 C 5.34375 -1.28125 4.320312 -2.140625 3.5 -3.203125 C 2.6875 -4.273438 2.078125 -5.46875 1.671875 -6.78125 C 1.265625 -8.101562 1.0625 -9.414062 1.0625 -10.71875 Z M 6.125 -6.9375 C 6.125 -5.820312 6.332031 -4.804688 6.75 -3.890625 C 7.164062 -2.984375 7.738281 -2.257812 8.46875 -1.71875 C 9.207031 -1.1875 10.03125 -0.921875 10.9375 -0.921875 C 12.425781 -0.921875 13.695312 -1.257812 14.75 -1.9375 C 15.8125 -2.613281 16.695312 -3.507812 17.40625 -4.625 C 18.125 -5.738281 18.691406 -6.972656 19.109375 -8.328125 C 19.523438 -9.679688 19.8125 -11.046875 19.96875 -12.421875 C 20.132812 -13.804688 20.21875 -15.09375 20.21875 -16.28125 C 20.21875 -17.15625 20.070312 -18.015625 19.78125 -18.859375 C 19.488281 -19.703125 19.019531 -20.398438 18.375 -20.953125 C 17.726562 -21.515625 16.882812 -21.796875 15.84375 -21.796875 C 14.707031 -21.796875 13.566406 -21.398438 12.421875 -20.609375 C 11.285156 -19.828125 10.242188 -18.742188 9.296875 -17.359375 C 8.347656 -15.972656 7.582031 -14.390625 7 -12.609375 C 6.414062 -10.828125 6.125 -8.9375 6.125 -6.9375 Z M 6.125 -6.9375 "/></g></g></g><g fill="#621f1f" fill-opacity="1"><g transform="translate(234.734889, 86.181091)"><g><path d="M 12.5 0.359375 C 10.570312 0.359375 8.890625 0.0390625 7.453125 -0.59375 C 6.023438 -1.238281 4.84375 -2.117188 3.90625 -3.234375 C 2.96875 -4.359375 2.257812 -5.617188 1.78125 -7.015625 C 1.300781 -8.410156 1.0625 -9.859375 1.0625 -11.359375 C 1.0625 -12.898438 1.304688 -14.40625 1.796875 -15.875 C 2.285156 -17.351562 2.96875 -18.691406 3.84375 -19.890625 C 4.71875 -21.085938 5.75 -22.035156 6.9375 -22.734375 C 8.125 -23.429688 9.429688 -23.78125 10.859375 -23.78125 L 16.984375 -23.78125 C 17.890625 -23.78125 18.644531 -23.273438 19.25 -22.265625 C 19.851562 -21.265625 20.15625 -19.882812 20.15625 -18.125 C 20.15625 -16.0625 19.800781 -14.25 19.09375 -12.6875 C 18.394531 -11.132812 17.359375 -9.925781 15.984375 -9.0625 C 14.609375 -8.195312 12.898438 -7.765625 10.859375 -7.765625 C 9.910156 -7.765625 9.070312 -7.875 8.34375 -8.09375 C 7.625 -8.320312 6.992188 -8.59375 6.453125 -8.90625 C 6.609375 -7.476562 6.898438 -6.171875 7.328125 -4.984375 C 7.753906 -3.796875 8.347656 -2.84375 9.109375 -2.125 C 9.867188 -1.414062 10.820312 -1.0625 11.96875 -1.0625 C 13.125 -1.0625 14.160156 -1.328125 15.078125 -1.859375 C 15.992188 -2.398438 16.796875 -3.101562 17.484375 -3.96875 C 18.171875 -4.832031 18.765625 -5.765625 19.265625 -6.765625 L 19.375 -6.765625 L 19.375 -1.921875 C 18.914062 -1.378906 18.300781 -0.9375 17.53125 -0.59375 C 16.757812 -0.25 15.9375 -0.00390625 15.0625 0.140625 C 14.1875 0.285156 13.332031 0.359375 12.5 0.359375 Z M 6.34375 -10.546875 C 6.90625 -10.347656 7.566406 -10.25 8.328125 -10.25 C 9.398438 -10.25 10.492188 -10.546875 11.609375 -11.140625 C 12.722656 -11.734375 13.753906 -12.519531 14.703125 -13.5 C 15.648438 -14.488281 16.414062 -15.59375 17 -16.8125 C 17.582031 -18.039062 17.875 -19.273438 17.875 -20.515625 C 17.875 -21.203125 17.679688 -21.660156 17.296875 -21.890625 C 16.921875 -22.128906 16.4375 -22.257812 15.84375 -22.28125 C 15.25 -22.3125 14.632812 -22.328125 14 -22.328125 C 12.8125 -22.328125 11.738281 -22.023438 10.78125 -21.421875 C 9.832031 -20.816406 9.023438 -20.003906 8.359375 -18.984375 C 7.703125 -17.960938 7.203125 -16.8125 6.859375 -15.53125 C 6.515625 -14.25 6.34375 -12.941406 6.34375 -11.609375 C 6.34375 -11.441406 6.34375 -11.269531 6.34375 -11.09375 C 6.34375 -10.914062 6.34375 -10.734375 6.34375 -10.546875 Z M 6.34375 -10.546875 "/></g></g></g><g fill="#621f1f" fill-opacity="1"><g transform="translate(29.058872, 135.78575)"><g><path d="M 6.546875 0.359375 C 5.460938 0.359375 4.613281 0.0664062 4 -0.515625 C 3.394531 -1.097656 2.957031 -1.882812 2.6875 -2.875 C 2.414062 -3.875 2.25 -5 2.1875 -6.25 C 2.125 -7.5 2.109375 -8.773438 2.140625 -10.078125 L 2.171875 -23.78125 L 9.46875 -23.78125 L 9.46875 -23.6875 C 7.519531 -21.851562 6.082031 -19.894531 5.15625 -17.8125 C 4.238281 -15.738281 3.78125 -13.492188 3.78125 -11.078125 C 3.78125 -10.191406 3.890625 -9.3125 4.109375 -8.4375 C 4.335938 -7.5625 4.742188 -6.832031 5.328125 -6.25 C 5.910156 -5.664062 6.722656 -5.375 7.765625 -5.375 C 9.492188 -5.375 11.015625 -5.765625 12.328125 -6.546875 C 13.648438 -7.335938 14.75 -8.425781 15.625 -9.8125 C 16.507812 -11.195312 17.171875 -12.800781 17.609375 -14.625 C 18.046875 -16.457031 18.265625 -18.421875 18.265625 -20.515625 L 18.265625 -23.78125 L 19.875 -23.78125 L 19.875 0 L 13.421875 0 L 13.421875 -0.109375 C 14.398438 -1.109375 15.160156 -2.1875 15.703125 -3.34375 C 16.242188 -4.507812 16.671875 -5.734375 16.984375 -7.015625 C 17.296875 -8.296875 17.570312 -9.613281 17.8125 -10.96875 C 17.351562 -9.726562 16.734375 -8.445312 15.953125 -7.125 C 15.171875 -5.8125 14.28125 -4.585938 13.28125 -3.453125 C 12.28125 -2.316406 11.203125 -1.394531 10.046875 -0.6875 C 8.898438 0.0078125 7.734375 0.359375 6.546875 0.359375 Z M 6.546875 0.359375 "/></g></g></g><g fill="#621f1f" fill-opacity="1"><g transform="translate(48.889768, 135.78575)"><g><path d="M 3.734375 0 L 2.140625 0 L 2.140625 -23.78125 L 8.578125 -23.78125 L 8.578125 -23.6875 C 7.628906 -22.6875 6.878906 -21.601562 6.328125 -20.4375 C 5.785156 -19.269531 5.359375 -18.046875 5.046875 -16.765625 C 4.742188 -15.484375 4.460938 -14.164062 4.203125 -12.8125 C 4.679688 -14.050781 5.359375 -15.328125 6.234375 -16.640625 C 7.109375 -17.960938 8.109375 -19.191406 9.234375 -20.328125 C 10.367188 -21.472656 11.554688 -22.394531 12.796875 -23.09375 C 14.046875 -23.789062 15.265625 -24.140625 16.453125 -24.140625 C 17.546875 -24.140625 18.394531 -23.847656 19 -23.265625 C 19.601562 -22.679688 20.039062 -21.890625 20.3125 -20.890625 C 20.582031 -19.898438 20.75 -18.785156 20.8125 -17.546875 C 20.875 -16.316406 20.890625 -15.035156 20.859375 -13.703125 L 20.828125 0 L 13.53125 0 L 13.53125 -0.109375 C 15.476562 -1.929688 16.914062 -3.878906 17.84375 -5.953125 C 18.769531 -8.035156 19.234375 -10.289062 19.234375 -12.71875 C 19.234375 -14.6875 18.75 -16.15625 17.78125 -17.125 C 16.820312 -18.101562 15.65625 -18.59375 14.28125 -18.59375 C 13.132812 -18.59375 11.953125 -18.265625 10.734375 -17.609375 C 9.515625 -16.953125 8.375 -15.984375 7.3125 -14.703125 C 6.257812 -13.421875 5.398438 -11.820312 4.734375 -9.90625 C 4.066406 -8 3.734375 -5.789062 3.734375 -3.28125 Z M 3.734375 0 "/></g></g></g><g fill="#621f1f" fill-opacity="1"><g transform="translate(69.717554, 135.78575)"><g><path d="M 1.0625 0 L 1.0625 -0.109375 C 2.175781 -1.671875 2.941406 -3.46875 3.359375 -5.5 C 3.773438 -7.53125 3.984375 -9.660156 3.984375 -11.890625 C 3.984375 -14.117188 3.773438 -16.25 3.359375 -18.28125 C 2.941406 -20.3125 2.175781 -22.113281 1.0625 -23.6875 L 1.0625 -23.78125 L 8.515625 -23.78125 L 8.515625 -23.6875 C 7.398438 -22.113281 6.632812 -20.3125 6.21875 -18.28125 C 5.800781 -16.25 5.59375 -14.117188 5.59375 -11.890625 C 5.59375 -9.660156 5.800781 -7.53125 6.21875 -5.5 C 6.632812 -3.46875 7.398438 -1.671875 8.515625 -0.109375 L 8.515625 0 Z M 4.84375 -25.671875 C 4.082031 -25.671875 3.382812 -25.851562 2.75 -26.21875 C 2.125 -26.59375 1.628906 -27.085938 1.265625 -27.703125 C 0.898438 -28.316406 0.71875 -29.003906 0.71875 -29.765625 C 0.71875 -30.523438 0.898438 -31.210938 1.265625 -31.828125 C 1.628906 -32.453125 2.125 -32.945312 2.75 -33.3125 C 3.382812 -33.675781 4.082031 -33.859375 4.84375 -33.859375 C 5.601562 -33.859375 6.289062 -33.675781 6.90625 -33.3125 C 7.519531 -32.945312 8.007812 -32.453125 8.375 -31.828125 C 8.75 -31.210938 8.9375 -30.523438 8.9375 -29.765625 C 8.9375 -29.003906 8.75 -28.316406 8.375 -27.703125 C 8.007812 -27.085938 7.519531 -26.59375 6.90625 -26.21875 C 6.289062 -25.851562 5.601562 -25.671875 4.84375 -25.671875 Z M 4.84375 -25.671875 "/></g></g></g><g fill="#621f1f" fill-opacity="1"><g transform="translate(77.122889, 135.78575)"><g><path d="M 13.390625 0.328125 C 11.609375 0.328125 9.976562 -0.0234375 8.5 -0.734375 C 7.03125 -1.453125 5.769531 -2.4375 4.71875 -3.6875 C 3.664062 -4.9375 2.851562 -6.359375 2.28125 -7.953125 C 1.707031 -9.554688 1.421875 -11.257812 1.421875 -13.0625 C 1.421875 -14.394531 1.625 -15.695312 2.03125 -16.96875 C 2.4375 -18.238281 3.046875 -19.382812 3.859375 -20.40625 C 4.679688 -21.425781 5.703125 -22.242188 6.921875 -22.859375 C 8.148438 -23.472656 9.582031 -23.78125 11.21875 -23.78125 L 22.1875 -23.78125 L 22.1875 -2.84375 C 22.1875 -1.445312 22.269531 0.0625 22.4375 1.6875 C 22.601562 3.3125 22.96875 4.972656 23.53125 6.671875 C 24.101562 8.367188 24.984375 10.050781 26.171875 11.71875 L 26.171875 11.828125 L 14.78125 11.828125 L 14.78125 11.71875 C 16.65625 9.769531 18.054688 7.515625 18.984375 4.953125 C 19.910156 2.390625 20.429688 -0.207031 20.546875 -2.84375 C 19.765625 -1.851562 18.75 -1.078125 17.5 -0.515625 C 16.25 0.046875 14.878906 0.328125 13.390625 0.328125 Z M 11.28125 -22.5 C 9.90625 -22.5 8.757812 -21.976562 7.84375 -20.9375 C 6.9375 -19.894531 6.484375 -18.53125 6.484375 -16.84375 C 6.484375 -14.851562 6.769531 -12.96875 7.34375 -11.1875 C 7.925781 -9.40625 8.691406 -7.816406 9.640625 -6.421875 C 10.597656 -5.035156 11.644531 -3.953125 12.78125 -3.171875 C 13.925781 -2.390625 15.066406 -2 16.203125 -2 C 16.984375 -2 17.648438 -2.15625 18.203125 -2.46875 C 18.765625 -2.789062 19.21875 -3.195312 19.5625 -3.6875 C 19.90625 -4.175781 20.160156 -4.660156 20.328125 -5.140625 C 20.492188 -5.628906 20.578125 -6.039062 20.578125 -6.375 L 20.578125 -7.515625 C 20.578125 -8.628906 20.484375 -9.847656 20.296875 -11.171875 C 20.109375 -12.503906 19.789062 -13.832031 19.34375 -15.15625 C 18.90625 -16.488281 18.332031 -17.710938 17.625 -18.828125 C 16.914062 -19.953125 16.035156 -20.84375 14.984375 -21.5 C 13.941406 -22.164062 12.707031 -22.5 11.28125 -22.5 Z M 11.28125 -22.5 "/></g></g></g><g fill="#621f1f" fill-opacity="1"><g transform="translate(99.339204, 135.78575)"><g><path d="M 6.546875 0.359375 C 5.460938 0.359375 4.613281 0.0664062 4 -0.515625 C 3.394531 -1.097656 2.957031 -1.882812 2.6875 -2.875 C 2.414062 -3.875 2.25 -5 2.1875 -6.25 C 2.125 -7.5 2.109375 -8.773438 2.140625 -10.078125 L 2.171875 -23.78125 L 9.46875 -23.78125 L 9.46875 -23.6875 C 7.519531 -21.851562 6.082031 -19.894531 5.15625 -17.8125 C 4.238281 -15.738281 3.78125 -13.492188 3.78125 -11.078125 C 3.78125 -10.191406 3.890625 -9.3125 4.109375 -8.4375 C 4.335938 -7.5625 4.742188 -6.832031 5.328125 -6.25 C 5.910156 -5.664062 6.722656 -5.375 7.765625 -5.375 C 9.492188 -5.375 11.015625 -5.765625 12.328125 -6.546875 C 13.648438 -7.335938 14.75 -8.425781 15.625 -9.8125 C 16.507812 -11.195312 17.171875 -12.800781 17.609375 -14.625 C 18.046875 -16.457031 18.265625 -18.421875 18.265625 -20.515625 L 18.265625 -23.78125 L 19.875 -23.78125 L 19.875 0 L 13.421875 0 L 13.421875 -0.109375 C 14.398438 -1.109375 15.160156 -2.1875 15.703125 -3.34375 C 16.242188 -4.507812 16.671875 -5.734375 16.984375 -7.015625 C 17.296875 -8.296875 17.570312 -9.613281 17.8125 -10.96875 C 17.351562 -9.726562 16.734375 -8.445312 15.953125 -7.125 C 15.171875 -5.8125 14.28125 -4.585938 13.28125 -3.453125 C 12.28125 -2.316406 11.203125 -1.394531 10.046875 -0.6875 C 8.898438 0.0078125 7.734375 0.359375 6.546875 0.359375 Z M 6.546875 0.359375 "/></g></g></g><g fill="#621f1f" fill-opacity="1"><g transform="translate(119.170099, 135.78575)"><g><path d="M 12.5 0.359375 C 10.570312 0.359375 8.890625 0.0390625 7.453125 -0.59375 C 6.023438 -1.238281 4.84375 -2.117188 3.90625 -3.234375 C 2.96875 -4.359375 2.257812 -5.617188 1.78125 -7.015625 C 1.300781 -8.410156 1.0625 -9.859375 1.0625 -11.359375 C 1.0625 -12.898438 1.304688 -14.40625 1.796875 -15.875 C 2.285156 -17.351562 2.96875 -18.691406 3.84375 -19.890625 C 4.71875 -21.085938 5.75 -22.035156 6.9375 -22.734375 C 8.125 -23.429688 9.429688 -23.78125 10.859375 -23.78125 L 16.984375 -23.78125 C 17.890625 -23.78125 18.644531 -23.273438 19.25 -22.265625 C 19.851562 -21.265625 20.15625 -19.882812 20.15625 -18.125 C 20.15625 -16.0625 19.800781 -14.25 19.09375 -12.6875 C 18.394531 -11.132812 17.359375 -9.925781 15.984375 -9.0625 C 14.609375 -8.195312 12.898438 -7.765625 10.859375 -7.765625 C 9.910156 -7.765625 9.070312 -7.875 8.34375 -8.09375 C 7.625 -8.320312 6.992188 -8.59375 6.453125 -8.90625 C 6.609375 -7.476562 6.898438 -6.171875 7.328125 -4.984375 C 7.753906 -3.796875 8.347656 -2.84375 9.109375 -2.125 C 9.867188 -1.414062 10.820312 -1.0625 11.96875 -1.0625 C 13.125 -1.0625 14.160156 -1.328125 15.078125 -1.859375 C 15.992188 -2.398438 16.796875 -3.101562 17.484375 -3.96875 C 18.171875 -4.832031 18.765625 -5.765625 19.265625 -6.765625 L 19.375 -6.765625 L 19.375 -1.921875 C 18.914062 -1.378906 18.300781 -0.9375 17.53125 -0.59375 C 16.757812 -0.25 15.9375 -0.00390625 15.0625 0.140625 C 14.1875 0.285156 13.332031 0.359375 12.5 0.359375 Z M 6.34375 -10.546875 C 6.90625 -10.347656 7.566406 -10.25 8.328125 -10.25 C 9.398438 -10.25 10.492188 -10.546875 11.609375 -11.140625 C 12.722656 -11.734375 13.753906 -12.519531 14.703125 -13.5 C 15.648438 -14.488281 16.414062 -15.59375 17 -16.8125 C 17.582031 -18.039062 17.875 -19.273438 17.875 -20.515625 C 17.875 -21.203125 17.679688 -21.660156 17.296875 -21.890625 C 16.921875 -22.128906 16.4375 -22.257812 15.84375 -22.28125 C 15.25 -22.3125 14.632812 -22.328125 14 -22.328125 C 12.8125 -22.328125 11.738281 -22.023438 10.78125 -21.421875 C 9.832031 -20.816406 9.023438 -20.003906 8.359375 -18.984375 C 7.703125 -17.960938 7.203125 -16.8125 6.859375 -15.53125 C 6.515625 -14.25 6.34375 -12.941406 6.34375 -11.609375 C 6.34375 -11.441406 6.34375 -11.269531 6.34375 -11.09375 C 6.34375 -10.914062 6.34375 -10.734375 6.34375 -10.546875 Z M 6.34375 -10.546875 "/></g></g></g><g fill="#621f1f" fill-opacity="1"><g transform="translate(138.217718, 135.78575)"><g><path d="M 3.734375 0 L 2.140625 0 L 2.140625 -23.78125 L 8.578125 -23.78125 L 8.578125 -23.6875 C 7.628906 -22.6875 6.878906 -21.601562 6.328125 -20.4375 C 5.785156 -19.269531 5.359375 -18.046875 5.046875 -16.765625 C 4.742188 -15.484375 4.460938 -14.164062 4.203125 -12.8125 C 4.679688 -14.050781 5.304688 -15.328125 6.078125 -16.640625 C 6.847656 -17.960938 7.726562 -19.191406 8.71875 -20.328125 C 9.71875 -21.472656 10.789062 -22.394531 11.9375 -23.09375 C 13.09375 -23.789062 14.265625 -24.140625 15.453125 -24.140625 C 16.546875 -24.140625 17.394531 -23.847656 18 -23.265625 C 18.601562 -22.679688 19.039062 -21.890625 19.3125 -20.890625 C 19.59375 -19.898438 19.757812 -18.785156 19.8125 -17.546875 C 19.875 -16.316406 19.894531 -15.035156 19.875 -13.703125 L 19.875 -13.109375 C 20.34375 -14.316406 20.96875 -15.566406 21.75 -16.859375 C 22.539062 -18.148438 23.425781 -19.347656 24.40625 -20.453125 C 25.394531 -21.554688 26.453125 -22.445312 27.578125 -23.125 C 28.703125 -23.800781 29.847656 -24.140625 31.015625 -24.140625 C 32.109375 -24.140625 32.957031 -23.847656 33.5625 -23.265625 C 34.164062 -22.679688 34.601562 -21.890625 34.875 -20.890625 C 35.144531 -19.898438 35.3125 -18.785156 35.375 -17.546875 C 35.4375 -16.316406 35.457031 -15.035156 35.4375 -13.703125 L 35.390625 0 L 28.09375 0 L 28.09375 -0.109375 C 30.039062 -1.929688 31.476562 -3.878906 32.40625 -5.953125 C 33.332031 -8.035156 33.796875 -10.289062 33.796875 -12.71875 C 33.796875 -14.726562 33.351562 -16.203125 32.46875 -17.140625 C 31.59375 -18.078125 30.523438 -18.546875 29.265625 -18.546875 C 28.109375 -18.546875 26.890625 -18.160156 25.609375 -17.390625 C 24.328125 -16.617188 23.160156 -15.503906 22.109375 -14.046875 C 21.066406 -12.585938 20.320312 -10.8125 19.875 -8.71875 L 19.828125 0 L 12.53125 0 L 12.53125 -0.109375 C 14.476562 -1.929688 15.914062 -3.878906 16.84375 -5.953125 C 17.769531 -8.035156 18.234375 -10.289062 18.234375 -12.71875 C 18.234375 -14.6875 17.78125 -16.15625 16.875 -17.125 C 15.976562 -18.101562 14.890625 -18.59375 13.609375 -18.59375 C 12.535156 -18.59375 11.425781 -18.265625 10.28125 -17.609375 C 9.144531 -16.953125 8.078125 -15.984375 7.078125 -14.703125 C 6.085938 -13.421875 5.28125 -11.820312 4.65625 -9.90625 C 4.039062 -8 3.734375 -5.789062 3.734375 -3.28125 Z M 3.734375 0 "/></g></g></g><g fill="#621f1f" fill-opacity="1"><g transform="translate(173.607273, 135.78575)"><g><path d="M 12.5 0.359375 C 10.570312 0.359375 8.890625 0.0390625 7.453125 -0.59375 C 6.023438 -1.238281 4.84375 -2.117188 3.90625 -3.234375 C 2.96875 -4.359375 2.257812 -5.617188 1.78125 -7.015625 C 1.300781 -8.410156 1.0625 -9.859375 1.0625 -11.359375 C 1.0625 -12.898438 1.304688 -14.40625 1.796875 -15.875 C 2.285156 -17.351562 2.96875 -18.691406 3.84375 -19.890625 C 4.71875 -21.085938 5.75 -22.035156 6.9375 -22.734375 C 8.125 -23.429688 9.429688 -23.78125 10.859375 -23.78125 L 16.984375 -23.78125 C 17.890625 -23.78125 18.644531 -23.273438 19.25 -22.265625 C 19.851562 -21.265625 20.15625 -19.882812 20.15625 -18.125 C 20.15625 -16.0625 19.800781 -14.25 19.09375 -12.6875 C 18.394531 -11.132812 17.359375 -9.925781 15.984375 -9.0625 C 14.609375 -8.195312 12.898438 -7.765625 10.859375 -7.765625 C 9.910156 -7.765625 9.070312 -7.875 8.34375 -8.09375 C 7.625 -8.320312 6.992188 -8.59375 6.453125 -8.90625 C 6.609375 -7.476562 6.898438 -6.171875 7.328125 -4.984375 C 7.753906 -3.796875 8.347656 -2.84375 9.109375 -2.125 C 9.867188 -1.414062 10.820312 -1.0625 11.96875 -1.0625 C 13.125 -1.0625 14.160156 -1.328125 15.078125 -1.859375 C 15.992188 -2.398438 16.796875 -3.101562 17.484375 -3.96875 C 18.171875 -4.832031 18.765625 -5.765625 19.265625 -6.765625 L 19.375 -6.765625 L 19.375 -1.921875 C 18.914062 -1.378906 18.300781 -0.9375 17.53125 -0.59375 C 16.757812 -0.25 15.9375 -0.00390625 15.0625 0.140625 C 14.1875 0.285156 13.332031 0.359375 12.5 0.359375 Z M 6.34375 -10.546875 C 6.90625 -10.347656 7.566406 -10.25 8.328125 -10.25 C 9.398438 -10.25 10.492188 -10.546875 11.609375 -11.140625 C 12.722656 -11.734375 13.753906 -12.519531 14.703125 -13.5 C 15.648438 -14.488281 16.414062 -15.59375 17 -16.8125 C 17.582031 -18.039062 17.875 -19.273438 17.875 -20.515625 C 17.875 -21.203125 17.679688 -21.660156 17.296875 -21.890625 C 16.921875 -22.128906 16.4375 -22.257812 15.84375 -22.28125 C 15.25 -22.3125 14.632812 -22.328125 14 -22.328125 C 12.8125 -22.328125 11.738281 -22.023438 10.78125 -21.421875 C 9.832031 -20.816406 9.023438 -20.003906 8.359375 -18.984375 C 7.703125 -17.960938 7.203125 -16.8125 6.859375 -15.53125 C 6.515625 -14.25 6.34375 -12.941406 6.34375 -11.609375 C 6.34375 -11.441406 6.34375 -11.269531 6.34375 -11.09375 C 6.34375 -10.914062 6.34375 -10.734375 6.34375 -10.546875 Z M 6.34375 -10.546875 "/></g></g></g><g fill="#621f1f" fill-opacity="1"><g transform="translate(192.654892, 135.78575)"><g><path d="M 3.734375 0 L 2.140625 0 L 2.140625 -23.78125 L 8.578125 -23.78125 L 8.578125 -23.6875 C 7.628906 -22.6875 6.878906 -21.601562 6.328125 -20.4375 C 5.785156 -19.269531 5.359375 -18.046875 5.046875 -16.765625 C 4.742188 -15.484375 4.460938 -14.164062 4.203125 -12.8125 C 4.679688 -14.050781 5.359375 -15.328125 6.234375 -16.640625 C 7.109375 -17.960938 8.109375 -19.191406 9.234375 -20.328125 C 10.367188 -21.472656 11.554688 -22.394531 12.796875 -23.09375 C 14.046875 -23.789062 15.265625 -24.140625 16.453125 -24.140625 C 17.546875 -24.140625 18.394531 -23.847656 19 -23.265625 C 19.601562 -22.679688 20.039062 -21.890625 20.3125 -20.890625 C 20.582031 -19.898438 20.75 -18.785156 20.8125 -17.546875 C 20.875 -16.316406 20.890625 -15.035156 20.859375 -13.703125 L 20.828125 0 L 13.53125 0 L 13.53125 -0.109375 C 15.476562 -1.929688 16.914062 -3.878906 17.84375 -5.953125 C 18.769531 -8.035156 19.234375 -10.289062 19.234375 -12.71875 C 19.234375 -14.6875 18.75 -16.15625 17.78125 -17.125 C 16.820312 -18.101562 15.65625 -18.59375 14.28125 -18.59375 C 13.132812 -18.59375 11.953125 -18.265625 10.734375 -17.609375 C 9.515625 -16.953125 8.375 -15.984375 7.3125 -14.703125 C 6.257812 -13.421875 5.398438 -11.820312 4.734375 -9.90625 C 4.066406 -8 3.734375 -5.789062 3.734375 -3.28125 Z M 3.734375 0 "/></g></g></g><g fill="#621f1f" fill-opacity="1"><g transform="translate(213.482678, 135.78575)"><g><path d="M 2.140625 -6.375 L 2.140625 -31.40625 L 8.765625 -31.40625 L 8.765625 -31.296875 C 7.835938 -30.367188 7.070312 -29.253906 6.46875 -27.953125 C 5.863281 -26.648438 5.367188 -25.257812 4.984375 -23.78125 L 13.390625 -23.78125 L 11.109375 -18.203125 L 11 -18.203125 C 10.3125 -19.316406 9.429688 -20.257812 8.359375 -21.03125 C 7.296875 -21.800781 6.066406 -22.269531 4.671875 -22.4375 C 4.304688 -20.769531 4.054688 -19.144531 3.921875 -17.5625 C 3.796875 -15.988281 3.734375 -14.644531 3.734375 -13.53125 L 3.734375 -10.078125 C 3.734375 -8.242188 4.066406 -6.890625 4.734375 -6.015625 C 5.398438 -5.140625 6.316406 -4.703125 7.484375 -4.703125 C 8.878906 -4.703125 10.0625 -5.046875 11.03125 -5.734375 C 12.007812 -6.421875 12.6875 -7.300781 13.0625 -8.375 L 13.3125 -8.375 L 13.3125 -1.609375 C 12.789062 -1.078125 12 -0.613281 10.9375 -0.21875 C 9.882812 0.164062 8.625 0.359375 7.15625 0.359375 C 5.5 0.359375 4.25 -0.164062 3.40625 -1.21875 C 2.5625 -2.28125 2.140625 -4 2.140625 -6.375 Z M 2.140625 -6.375 "/></g></g></g></g></g></svg>