<svg xmlns="http://www.w3.org/2000/svg" xmlns:xlink="http://www.w3.org/1999/xlink" width="500" zoomAndPan="magnify" viewBox="0 0 375 374.999991" height="500" preserveAspectRatio="xMidYMid meet" version="1.0"><defs><g/><clipPath id="6054ebb1b1"><rect x="0" width="239" y="0" height="99"/></clipPath><clipPath id="36f47ef68c"><path d="M 102.492188 187.199219 L 272.207031 187.199219 L 272.207031 200.980469 L 102.492188 200.980469 Z M 102.492188 187.199219 " clip-rule="nonzero"/></clipPath><clipPath id="7e2379fd2e"><path d="M 0.492188 0.199219 L 170.207031 0.199219 L 170.207031 13.980469 L 0.492188 13.980469 Z M 0.492188 0.199219 " clip-rule="nonzero"/></clipPath><clipPath id="4eb7d2a72e"><rect x="0" width="171" y="0" height="14"/></clipPath><clipPath id="840c383619"><path d="M 0.199219 3 L 5 3 L 5 9 L 0.199219 9 Z M 0.199219 3 " clip-rule="nonzero"/></clipPath><clipPath id="37219f5e99"><rect x="0" width="115" y="0" height="13"/></clipPath></defs><g transform="matrix(1, 0, 0, 1, 67, 149)"><g clip-path="url(#6054ebb1b1)"><g fill="#231f20" fill-opacity="1"><g transform="translate(1.056259, 74.277622)"><g><path d="M 0 -70.328125 L 30.96875 -70.328125 L 30.96875 -69.703125 C 29.65625 -68.710938 28.757812 -67.25 28.28125 -65.3125 C 27.8125 -63.382812 27.625 -61.195312 27.71875 -58.75 C 27.820312 -56.3125 28.097656 -53.816406 28.546875 -51.265625 C 29.003906 -48.710938 29.507812 -46.316406 30.0625 -44.078125 C 30.625 -41.835938 31.085938 -39.957031 31.453125 -38.4375 C 32.203125 -35.550781 32.851562 -32.988281 33.40625 -30.75 C 33.957031 -28.507812 34.488281 -26.390625 35 -24.390625 C 35.519531 -22.398438 36.035156 -20.351562 36.546875 -18.25 C 37.066406 -16.15625 37.644531 -13.832031 38.28125 -11.28125 C 38.914062 -8.738281 39.664062 -5.800781 40.53125 -2.46875 C 41.101562 -4.9375 41.800781 -7.832031 42.625 -11.15625 C 43.445312 -14.488281 44.332031 -18.097656 45.28125 -21.984375 C 46.226562 -25.878906 47.148438 -29.859375 48.046875 -33.921875 C 47.304688 -36.804688 46.546875 -39.800781 45.765625 -42.90625 C 44.984375 -46.007812 44.144531 -49.347656 43.25 -52.921875 C 42.832031 -54.566406 42.351562 -56.351562 41.8125 -58.28125 C 41.28125 -60.21875 40.695312 -62.050781 40.0625 -63.78125 C 39.425781 -65.507812 38.75 -66.925781 38.03125 -68.03125 C 37.3125 -69.144531 36.5625 -69.703125 35.78125 -69.703125 L 35.78125 -70.328125 L 66.75 -70.328125 L 66.75 -69.703125 C 65.425781 -68.710938 64.53125 -67.25 64.0625 -65.3125 C 63.59375 -63.382812 63.40625 -61.195312 63.5 -58.75 C 63.601562 -56.3125 63.878906 -53.816406 64.328125 -51.265625 C 64.785156 -48.710938 65.289062 -46.316406 65.84375 -44.078125 C 66.40625 -41.835938 66.867188 -39.957031 67.234375 -38.4375 C 67.972656 -35.550781 68.617188 -32.976562 69.171875 -30.71875 C 69.734375 -28.457031 70.257812 -26.304688 70.75 -24.265625 C 71.25 -22.234375 71.753906 -20.15625 72.265625 -18.03125 C 72.773438 -15.914062 73.347656 -13.570312 73.984375 -11 C 74.628906 -8.4375 75.382812 -5.488281 76.25 -2.15625 C 76.78125 -4.457031 77.382812 -7.171875 78.0625 -10.296875 C 78.738281 -13.421875 79.40625 -16.800781 80.0625 -20.4375 C 80.726562 -24.082031 81.265625 -27.828125 81.671875 -31.671875 C 82.085938 -35.515625 82.296875 -39.316406 82.296875 -43.078125 C 82.296875 -46.847656 81.992188 -50.425781 81.390625 -53.8125 C 80.796875 -57.207031 79.800781 -60.269531 78.40625 -63 C 77.007812 -65.738281 75.117188 -67.972656 72.734375 -69.703125 L 72.734375 -70.328125 L 97.78125 -70.328125 L 97.78125 -69.703125 C 97 -69.703125 96.242188 -69.144531 95.515625 -68.03125 C 94.796875 -66.925781 94.117188 -65.507812 93.484375 -63.78125 C 92.847656 -62.050781 92.257812 -60.21875 91.71875 -58.28125 C 91.1875 -56.351562 90.71875 -54.566406 90.3125 -52.921875 C 89.28125 -48.816406 88.3125 -44.992188 87.40625 -41.453125 C 86.5 -37.921875 85.644531 -34.539062 84.84375 -31.3125 C 84.039062 -28.082031 83.238281 -24.851562 82.4375 -21.625 C 81.644531 -18.394531 80.804688 -15.019531 79.921875 -11.5 C 79.035156 -7.988281 78.054688 -4.15625 76.984375 0 L 56.5625 0 C 55.582031 -4.03125 54.648438 -7.757812 53.765625 -11.1875 C 52.878906 -14.625 52.046875 -17.914062 51.265625 -21.0625 C 50.484375 -24.207031 49.703125 -27.363281 48.921875 -30.53125 C 48.140625 -27.363281 47.347656 -24.207031 46.546875 -21.0625 C 45.742188 -17.914062 44.910156 -14.625 44.046875 -11.1875 C 43.179688 -7.757812 42.234375 -4.03125 41.203125 0 L 20.78125 0 C 19.757812 -4.113281 18.796875 -7.9375 17.890625 -11.46875 C 16.984375 -15.007812 16.128906 -18.394531 15.328125 -21.625 C 14.523438 -24.851562 13.722656 -28.082031 12.921875 -31.3125 C 12.117188 -34.539062 11.273438 -37.921875 10.390625 -41.453125 C 9.503906 -44.992188 8.53125 -48.816406 7.46875 -52.921875 C 7.050781 -54.566406 6.578125 -56.351562 6.046875 -58.28125 C 5.515625 -60.21875 4.925781 -62.050781 4.28125 -63.78125 C 3.644531 -65.507812 2.96875 -66.925781 2.25 -68.03125 C 1.53125 -69.144531 0.78125 -69.703125 0 -69.703125 Z M 0 -70.328125 "/></g></g></g><g fill="#231f20" fill-opacity="1"><g transform="translate(96.988815, 74.277622)"><g><path d="M 1.546875 0 L 1.546875 -0.609375 C 2.984375 -0.984375 4.007812 -1.847656 4.625 -3.203125 C 5.238281 -4.566406 5.546875 -6.378906 5.546875 -8.640625 L 5.546875 -61.6875 C 5.546875 -63.988281 5.238281 -65.804688 4.625 -67.140625 C 4.007812 -68.484375 2.984375 -69.335938 1.546875 -69.703125 L 1.546875 -70.328125 L 29.296875 -70.328125 L 29.296875 -69.703125 C 27.859375 -69.335938 26.832031 -68.484375 26.21875 -67.140625 C 25.601562 -65.804688 25.296875 -63.988281 25.296875 -61.6875 L 25.296875 -8.640625 C 25.296875 -6.378906 25.601562 -4.566406 26.21875 -3.203125 C 26.832031 -1.847656 27.859375 -0.984375 29.296875 -0.609375 L 29.296875 0 Z M 1.546875 0 "/></g></g></g><g fill="#231f20" fill-opacity="1"><g transform="translate(125.984463, 74.277622)"><g><path d="M 2.78125 -35.15625 C 2.78125 -40.832031 3.597656 -45.921875 5.234375 -50.421875 C 6.878906 -54.929688 9.128906 -58.75 11.984375 -61.875 C 14.847656 -65 18.128906 -67.382812 21.828125 -69.03125 C 25.535156 -70.675781 29.46875 -71.5 33.625 -71.5 C 35.3125 -71.539062 36.75 -71.507812 37.9375 -71.40625 C 39.132812 -71.300781 40.265625 -71.175781 41.328125 -71.03125 C 42.398438 -70.882812 43.539062 -70.75 44.75 -70.625 C 45.96875 -70.507812 47.398438 -70.453125 49.046875 -70.453125 C 49.660156 -70.453125 50.328125 -70.539062 51.046875 -70.71875 C 51.765625 -70.90625 52.289062 -71.207031 52.625 -71.625 L 53.234375 -71.625 L 53.234375 -49.234375 L 52.625 -49.234375 C 52.414062 -50.910156 52.007812 -52.707031 51.40625 -54.625 C 50.8125 -56.539062 50.039062 -58.421875 49.09375 -60.265625 C 48.15625 -62.117188 47.035156 -63.804688 45.734375 -65.328125 C 44.441406 -66.847656 42.992188 -68.0625 41.390625 -68.96875 C 39.785156 -69.875 38.039062 -70.328125 36.15625 -70.328125 C 34.257812 -70.328125 32.59375 -69.6875 31.15625 -68.40625 C 29.71875 -67.132812 28.484375 -65.367188 27.453125 -63.109375 C 26.421875 -60.847656 25.585938 -58.222656 24.953125 -55.234375 C 24.316406 -52.253906 23.851562 -49.046875 23.5625 -45.609375 C 23.269531 -42.179688 23.125 -38.675781 23.125 -35.09375 C 23.125 -31.5625 23.269531 -28.085938 23.5625 -24.671875 C 23.851562 -21.265625 24.316406 -18.066406 24.953125 -15.078125 C 25.585938 -12.097656 26.421875 -9.476562 27.453125 -7.21875 C 28.484375 -4.957031 29.71875 -3.1875 31.15625 -1.90625 C 32.59375 -0.632812 34.257812 0 36.15625 0 L 36.15625 -31.03125 C 36.15625 -33.332031 35.84375 -35.148438 35.21875 -36.484375 C 34.601562 -37.828125 33.578125 -38.679688 32.140625 -39.046875 L 32.140625 -39.671875 L 59.90625 -39.671875 L 59.90625 -39.046875 C 58.457031 -38.679688 57.425781 -37.828125 56.8125 -36.484375 C 56.195312 -35.148438 55.890625 -33.332031 55.890625 -31.03125 L 55.890625 -3.890625 C 55.890625 -3.890625 55.382812 -3.628906 54.375 -3.109375 C 53.363281 -2.597656 51.898438 -2.015625 49.984375 -1.359375 C 48.078125 -0.703125 45.742188 -0.117188 42.984375 0.390625 C 40.234375 0.910156 37.113281 1.171875 33.625 1.171875 C 29.46875 1.171875 25.535156 0.347656 21.828125 -1.296875 C 18.128906 -2.941406 14.847656 -5.328125 11.984375 -8.453125 C 9.128906 -11.578125 6.878906 -15.390625 5.234375 -19.890625 C 3.597656 -24.398438 2.78125 -29.488281 2.78125 -35.15625 Z M 2.78125 -35.15625 "/></g></g></g><g fill="#231f20" fill-opacity="1"><g transform="translate(185.579839, 74.277622)"><g><path d="M 36.390625 -8.890625 C 36.390625 -11.597656 35.914062 -13.9375 34.96875 -15.90625 C 34.03125 -17.882812 32.757812 -19.613281 31.15625 -21.09375 C 29.550781 -22.570312 27.75 -23.914062 25.75 -25.125 C 23.757812 -26.34375 21.703125 -27.535156 19.578125 -28.703125 C 17.460938 -29.878906 15.40625 -31.132812 13.40625 -32.46875 C 11.414062 -33.8125 9.617188 -35.363281 8.015625 -37.125 C 6.410156 -38.894531 5.132812 -40.984375 4.1875 -43.390625 C 3.25 -45.796875 2.78125 -48.644531 2.78125 -51.9375 C 2.78125 -56.425781 3.804688 -60.109375 5.859375 -62.984375 C 7.910156 -65.859375 10.707031 -67.992188 14.25 -69.390625 C 17.789062 -70.796875 21.757812 -71.5 26.15625 -71.5 C 28.375 -71.5 30.390625 -71.40625 32.203125 -71.21875 C 34.015625 -71.03125 35.820312 -70.832031 37.625 -70.625 C 39.4375 -70.425781 41.453125 -70.328125 43.671875 -70.328125 C 44.285156 -70.328125 44.953125 -70.414062 45.671875 -70.59375 C 46.398438 -70.78125 46.925781 -71.082031 47.25 -71.5 L 47.875 -71.5 L 47.875 -49.109375 L 47.25 -49.109375 C 47.039062 -50.785156 46.484375 -52.59375 45.578125 -54.53125 C 44.679688 -56.46875 43.519531 -58.359375 42.09375 -60.203125 C 40.675781 -62.054688 39.082031 -63.753906 37.3125 -65.296875 C 35.550781 -66.835938 33.710938 -68.0625 31.796875 -68.96875 C 29.890625 -69.875 27.988281 -70.328125 26.09375 -70.328125 C 23.75 -70.328125 21.765625 -69.59375 20.140625 -68.125 C 18.515625 -66.664062 17.703125 -64.601562 17.703125 -61.9375 C 17.703125 -59.34375 18.175781 -57.097656 19.125 -55.203125 C 20.070312 -53.316406 21.359375 -51.660156 22.984375 -50.234375 C 24.609375 -48.816406 26.414062 -47.519531 28.40625 -46.34375 C 30.40625 -45.175781 32.484375 -44.023438 34.640625 -42.890625 C 36.796875 -41.765625 38.867188 -40.535156 40.859375 -39.203125 C 42.859375 -37.867188 44.671875 -36.347656 46.296875 -34.640625 C 47.921875 -32.929688 49.207031 -30.90625 50.15625 -28.5625 C 51.101562 -26.21875 51.578125 -23.460938 51.578125 -20.296875 C 51.578125 -17.253906 50.976562 -14.425781 49.78125 -11.8125 C 48.59375 -9.195312 46.914062 -6.921875 44.75 -4.984375 C 42.59375 -3.054688 40.050781 -1.546875 37.125 -0.453125 C 34.207031 0.628906 31.023438 1.171875 27.578125 1.171875 C 24.203125 1.171875 21.144531 0.910156 18.40625 0.390625 C 15.675781 -0.117188 13.109375 -0.914062 10.703125 -2 C 8.296875 -3.09375 5.898438 -4.503906 3.515625 -6.234375 L 3.515625 -29.546875 L 4.25 -29.546875 C 4.25 -28.679688 4.523438 -27.363281 5.078125 -25.59375 C 5.640625 -23.832031 6.429688 -21.835938 7.453125 -19.609375 C 8.484375 -17.390625 9.707031 -15.148438 11.125 -12.890625 C 12.550781 -10.628906 14.125 -8.53125 15.84375 -6.59375 C 17.570312 -4.664062 19.414062 -3.101562 21.375 -1.90625 C 23.332031 -0.71875 25.359375 -0.125 27.453125 -0.125 C 29.753906 -0.125 31.550781 -0.515625 32.84375 -1.296875 C 34.144531 -2.078125 35.0625 -3.125 35.59375 -4.4375 C 36.125 -5.757812 36.390625 -7.242188 36.390625 -8.890625 Z M 36.390625 -8.890625 "/></g></g></g></g></g><g clip-path="url(#36f47ef68c)"><g transform="matrix(1, 0, 0, 1, 102, 187)"><g clip-path="url(#4eb7d2a72e)"><g clip-path="url(#7e2379fd2e)"><path fill="#ebe8e8" d="M 0.492188 0.199219 L 170.203125 0.199219 L 170.203125 13.980469 L 0.492188 13.980469 Z M 0.492188 0.199219 " fill-opacity="1" fill-rule="nonzero"/></g></g></g></g><g transform="matrix(1, 0, 0, 1, 133, 187)"><g clip-path="url(#37219f5e99)"><g clip-path="url(#840c383619)"><g fill="#231f20" fill-opacity="1"><g transform="translate(0.433985, 8.272703)"><g><path d="M 2.234375 -4.671875 C 2.421875 -4.671875 2.597656 -4.648438 2.765625 -4.609375 C 2.929688 -4.566406 3.09375 -4.503906 3.25 -4.421875 C 3.40625 -4.347656 3.53125 -4.226562 3.625 -4.0625 C 3.71875 -3.894531 3.765625 -3.695312 3.765625 -3.46875 C 3.765625 -3.019531 3.546875 -2.691406 3.109375 -2.484375 C 3.703125 -2.304688 4 -1.925781 4 -1.34375 C 4 -0.445312 3.414062 0 2.25 0 L 0.484375 0 L 0.484375 -4.671875 Z M 2.109375 -2.703125 C 2.492188 -2.703125 2.765625 -2.757812 2.921875 -2.875 C 3.085938 -3 3.171875 -3.171875 3.171875 -3.390625 C 3.171875 -3.691406 3.078125 -3.890625 2.890625 -3.984375 C 2.703125 -4.078125 2.414062 -4.125 2.03125 -4.125 L 1.09375 -4.125 L 1.09375 -2.703125 Z M 3.359375 -1.34375 C 3.359375 -1.613281 3.269531 -1.816406 3.09375 -1.953125 C 2.925781 -2.085938 2.617188 -2.15625 2.171875 -2.15625 L 1.09375 -2.15625 L 1.09375 -0.546875 L 2.25 -0.546875 C 2.65625 -0.546875 2.941406 -0.613281 3.109375 -0.75 C 3.273438 -0.894531 3.359375 -1.09375 3.359375 -1.34375 Z M 3.359375 -1.34375 "/></g></g></g></g><g fill="#231f20" fill-opacity="1"><g transform="translate(9.994934, 8.272703)"><g><path d="M 1.8125 0 L 1.8125 -1.96875 L 0.015625 -4.671875 L 0.765625 -4.671875 L 2.171875 -2.53125 L 3.578125 -4.671875 L 4.296875 -4.671875 L 2.4375 -1.96875 L 2.4375 0 Z M 1.8125 0 "/></g></g></g><g fill="#231f20" fill-opacity="1"><g transform="translate(19.555882, 8.272703)"><g/></g></g><g fill="#231f20" fill-opacity="1"><g transform="translate(26.990721, 8.272703)"><g><path d="M -0.015625 0 L 1.78125 -4.671875 L 2.453125 -4.671875 L 4.359375 0 L 3.65625 0 L 3.109375 -1.421875 L 1.15625 -1.421875 L 0.65625 0 Z M 1.328125 -1.921875 L 2.921875 -1.921875 L 2.4375 -3.203125 C 2.320312 -3.503906 2.207031 -3.828125 2.09375 -4.171875 C 2.050781 -3.929688 1.96875 -3.632812 1.84375 -3.28125 Z M 1.328125 -1.921875 "/></g></g></g><g fill="#231f20" fill-opacity="1"><g transform="translate(36.55167, 8.272703)"><g><path d="M -0.015625 0 L 1.78125 -4.671875 L 2.453125 -4.671875 L 4.359375 0 L 3.65625 0 L 3.109375 -1.421875 L 1.15625 -1.421875 L 0.65625 0 Z M 1.328125 -1.921875 L 2.921875 -1.921875 L 2.4375 -3.203125 C 2.320312 -3.503906 2.207031 -3.828125 2.09375 -4.171875 C 2.050781 -3.929688 1.96875 -3.632812 1.84375 -3.28125 Z M 1.328125 -1.921875 "/></g></g></g><g fill="#231f20" fill-opacity="1"><g transform="translate(46.112618, 8.272703)"><g><path d="M 0.484375 0 L 0.484375 -4.671875 L 1.09375 -4.671875 L 1.09375 -0.546875 L 3.390625 -0.546875 L 3.390625 0 Z M 0.484375 0 "/></g></g></g><g fill="#231f20" fill-opacity="1"><g transform="translate(54.956167, 8.272703)"><g><path d="M -0.015625 0 L 1.78125 -4.671875 L 2.453125 -4.671875 L 4.359375 0 L 3.65625 0 L 3.109375 -1.421875 L 1.15625 -1.421875 L 0.65625 0 Z M 1.328125 -1.921875 L 2.921875 -1.921875 L 2.4375 -3.203125 C 2.320312 -3.503906 2.207031 -3.828125 2.09375 -4.171875 C 2.050781 -3.929688 1.96875 -3.632812 1.84375 -3.28125 Z M 1.328125 -1.921875 "/></g></g></g><g fill="#231f20" fill-opacity="1"><g transform="translate(64.517115, 8.272703)"><g><path d="M 0.5 0 L 0.5 -4.671875 L 1.125 -4.671875 L 3.578125 -1.015625 L 3.578125 -4.671875 L 4.171875 -4.671875 L 4.171875 0 L 3.53125 0 L 1.09375 -3.671875 L 1.09375 0 Z M 0.5 0 "/></g></g></g><g fill="#231f20" fill-opacity="1"><g transform="translate(74.436764, 8.272703)"><g><path d="M 4 -1.3125 C 4 -0.882812 3.835938 -0.546875 3.515625 -0.296875 C 3.191406 -0.046875 2.78125 0.078125 2.28125 0.078125 C 1.675781 0.078125 1.195312 -0.0507812 0.84375 -0.3125 C 0.5 -0.582031 0.3125 -0.976562 0.28125 -1.5 L 0.875 -1.546875 C 0.96875 -0.828125 1.425781 -0.46875 2.25 -0.46875 C 2.425781 -0.46875 2.59375 -0.488281 2.75 -0.53125 C 2.914062 -0.570312 3.066406 -0.65625 3.203125 -0.78125 C 3.347656 -0.90625 3.421875 -1.066406 3.421875 -1.265625 C 3.421875 -1.523438 3.316406 -1.707031 3.109375 -1.8125 C 2.898438 -1.925781 2.523438 -2.039062 1.984375 -2.15625 C 1.460938 -2.289062 1.078125 -2.457031 0.828125 -2.65625 C 0.585938 -2.851562 0.46875 -3.125 0.46875 -3.46875 C 0.46875 -3.875 0.617188 -4.1875 0.921875 -4.40625 C 1.234375 -4.632812 1.628906 -4.75 2.109375 -4.75 C 2.628906 -4.75 3.046875 -4.628906 3.359375 -4.390625 C 3.679688 -4.148438 3.847656 -3.800781 3.859375 -3.34375 L 3.28125 -3.296875 C 3.21875 -3.898438 2.835938 -4.203125 2.140625 -4.203125 C 1.421875 -4.203125 1.0625 -3.96875 1.0625 -3.5 C 1.0625 -3.289062 1.144531 -3.132812 1.3125 -3.03125 C 1.488281 -2.925781 1.773438 -2.832031 2.171875 -2.75 C 2.285156 -2.738281 2.40625 -2.710938 2.53125 -2.671875 C 2.664062 -2.640625 2.800781 -2.601562 2.9375 -2.5625 C 3.070312 -2.519531 3.203125 -2.460938 3.328125 -2.390625 C 3.460938 -2.316406 3.578125 -2.234375 3.671875 -2.140625 C 3.773438 -2.054688 3.851562 -1.941406 3.90625 -1.796875 C 3.96875 -1.648438 4 -1.488281 4 -1.3125 Z M 4 -1.3125 "/></g></g></g><g fill="#231f20" fill-opacity="1"><g transform="translate(83.997712, 8.272703)"><g><path d="M 0.515625 0 L 0.515625 -4.671875 L 1.140625 -4.671875 L 1.140625 -2.75 L 3.5625 -2.75 L 3.5625 -4.671875 L 4.1875 -4.671875 L 4.1875 0 L 3.5625 0 L 3.5625 -2.203125 L 1.140625 -2.203125 L 1.140625 0 Z M 0.515625 0 "/></g></g></g><g fill="#231f20" fill-opacity="1"><g transform="translate(93.91736, 8.272703)"><g><path d="M 2.546875 0.078125 C 1.878906 0.078125 1.335938 -0.144531 0.921875 -0.59375 C 0.515625 -1.039062 0.3125 -1.601562 0.3125 -2.28125 C 0.3125 -3.019531 0.503906 -3.613281 0.890625 -4.0625 C 1.285156 -4.519531 1.835938 -4.75 2.546875 -4.75 C 2.835938 -4.75 3.113281 -4.695312 3.375 -4.59375 C 3.632812 -4.5 3.867188 -4.351562 4.078125 -4.15625 C 4.296875 -3.96875 4.46875 -3.710938 4.59375 -3.390625 C 4.71875 -3.078125 4.78125 -2.722656 4.78125 -2.328125 C 4.78125 -1.953125 4.726562 -1.617188 4.625 -1.328125 C 4.519531 -1.046875 4.390625 -0.816406 4.234375 -0.640625 C 4.078125 -0.472656 3.894531 -0.332031 3.6875 -0.21875 C 3.488281 -0.101562 3.296875 -0.0234375 3.109375 0.015625 C 2.921875 0.0546875 2.734375 0.078125 2.546875 0.078125 Z M 2.546875 -4.21875 C 2.242188 -4.21875 1.984375 -4.160156 1.765625 -4.046875 C 1.546875 -3.929688 1.378906 -3.773438 1.265625 -3.578125 C 1.148438 -3.378906 1.066406 -3.171875 1.015625 -2.953125 C 0.972656 -2.742188 0.953125 -2.515625 0.953125 -2.265625 C 0.953125 -1.734375 1.09375 -1.296875 1.375 -0.953125 C 1.664062 -0.617188 2.054688 -0.453125 2.546875 -0.453125 C 3.046875 -0.453125 3.4375 -0.625 3.71875 -0.96875 C 4 -1.320312 4.140625 -1.773438 4.140625 -2.328125 C 4.140625 -2.679688 4.085938 -2.988281 3.984375 -3.25 C 3.890625 -3.507812 3.757812 -3.707031 3.59375 -3.84375 C 3.4375 -3.976562 3.269531 -4.070312 3.09375 -4.125 C 2.914062 -4.1875 2.734375 -4.21875 2.546875 -4.21875 Z M 2.546875 -4.21875 "/></g></g></g><g fill="#231f20" fill-opacity="1"><g transform="translate(104.202235, 8.272703)"><g><path d="M 0.5 0 L 0.5 -4.671875 L 2.265625 -4.671875 C 2.859375 -4.671875 3.304688 -4.5625 3.609375 -4.34375 C 3.910156 -4.132812 4.0625 -3.789062 4.0625 -3.3125 C 4.0625 -2.363281 3.476562 -1.890625 2.3125 -1.890625 L 1.125 -1.890625 L 1.125 0 Z M 3.421875 -3.296875 C 3.421875 -3.609375 3.332031 -3.820312 3.15625 -3.9375 C 2.976562 -4.0625 2.695312 -4.125 2.3125 -4.125 L 1.125 -4.125 L 1.125 -2.453125 L 2.328125 -2.453125 C 3.054688 -2.453125 3.421875 -2.734375 3.421875 -3.296875 Z M 3.421875 -3.296875 "/></g></g></g></g></g></svg>